<svg xmlns="http://www.w3.org/2000/svg" width="16" height="16" fill="currentColor" viewBox="0 0 16 16">
  <path fill-rule="evenodd" d="M5 11.357A2.168 2.168 0 0 1 7.168 9.19h2.167a2.168 2.168 0 0 1 2.167 2.168V13H5v-1.643Zm5.002 0v.143H6.5v-.143c0-.368.299-.667.668-.667h2.167c.369 0 .667.299.667.667ZM7.168 8.123a2.444 2.444 0 0 1-1.355-2.185 2.438 2.438 0 1 1 1.355 2.185ZM9.19 5.938a.938.938 0 1 1-1.877 0 .938.938 0 0 1 1.877 0Z" clip-rule="evenodd"/>
  <path fill-rule="evenodd" d="M2 0v16h12v-3h1v-2h-1V9h1V7h-1V5h1V3h-1V0H2Zm1.5 1.5h9v13h-9v-13Z" clip-rule="evenodd"/>
</svg>
