<svg xmlns="http://www.w3.org/2000/svg" width="16" height="16" fill="currentColor" viewBox="0 0 16 16">
  <path fill-rule="evenodd" d="M14.943 0 0 14.943 1.057 16l2.975-2.975.032-.025h9.432c1.299 0 1.998-1.6 1.099-2.6-.7-.7-1.599-2-1.599-4.4 0-.648-.052-1.243-.153-1.786l.001-.002L16 1.057 14.943 0Zm-9.38 11.5 5.925-5.93c.006.139.01.282.01.43 0 2.798 1.056 4.46 1.994 5.417a.08.08 0 0 1 .006.011.023.023 0 0 1 .003.008.098.098 0 0 1-.009.048.119.119 0 0 1-.008.016H5.563Z" clip-rule="evenodd"/>
  <path d="M10.416 2.402C9.878 1.837 9.096 1.5 8 1.5c-1.15 0-1.955.371-2.494.988C4.944 3.13 4.503 4.234 4.503 6c0 1.058-.151 1.954-.39 2.71l-3.075 3.078a1.548 1.548 0 0 1 .367-1.388c.7-.7 1.599-2 1.599-4.4 0-4 1.998-6 4.996-6 1.417 0 2.611.447 3.476 1.341l-1.06 1.061ZM9.998 14a1.988 1.988 0 0 1-.68 1.5 1.989 1.989 0 0 1-2.636 0 2.009 2.009 0 0 1-.68-1.5h3.996Z"/>
</svg>
