<svg xmlns="http://www.w3.org/2000/svg" width="16" height="16" fill="currentColor" viewBox="0 0 16 16">
  <path fill-rule="evenodd" d="M13.5 13c1.3 0 2-1.6 1.1-2.6-.7-.7-1.6-2-1.6-4.4 0-4-2-6-5-6S3 2 3 6c0 2.4-.9 3.7-1.6 4.4-.9 1-.2 2.6 1.1 2.6h11ZM10 14H6a1.986 1.986 0 0 0 .68 1.5 1.991 1.991 0 0 0 2.639 0 2.008 2.008 0 0 0 .68-1.5Zm-7.496-2.583C3.442 10.461 4.5 8.798 4.5 6c0-1.766.441-2.87 1.004-3.512C6.043 1.87 6.849 1.5 8 1.5s1.957.371 2.496.988C11.058 3.13 11.5 4.234 11.5 6c0 2.798 1.057 4.46 1.996 5.417l.006.011a.023.023 0 0 1 .003.008.097.097 0 0 1-.01.048.1.1 0 0 1-.007.016H2.512a.109.109 0 0 1-.009-.016.097.097 0 0 1-.008-.048c0-.003 0-.005.002-.008l.007-.011Z" clip-rule="evenodd"/>
</svg>
