<svg xmlns="http://www.w3.org/2000/svg" width="16" height="16" fill="currentColor" viewBox="0 0 16 16">
  <path d="M6.5 3c0-.505.165-.867.4-1.1.233-.235.595-.4 1.1-.4.505 0 .867.165 1.1.4.235.233.4.595.4 1.1H11c0-.845-.285-1.608-.838-2.162C9.608.285 8.845 0 8 0S6.392.285 5.838.838C5.285 1.392 5 2.155 5 3h1.5Z"/>
  <path fill-rule="evenodd" d="M13.314 3.186 12 4.5H4.374L3.061 3.186 2 4.247l1 1V8H1v1.5h2V11c0 .566.077 1.345.405 2.095L2 14.5l1.06 1.06 1.219-1.217c.636.591 1.58 1.035 2.971 1.136l1.5.02c1.485-.018 2.484-.596 3.138-1.364l1.426 1.426 1.06-1.061-1.71-1.71A5.27 5.27 0 0 0 13 11V9.5h2V8h-2V5.622l1.374-1.375-1.06-1.06ZM4.5 6v5c0 .58.106 1.294.47 1.852.302.462.892.997 2.28 1.122V10h1.5v4c1.171-.02 1.785-.505 2.16-1.054.43-.629.59-1.429.59-1.946V6h-7Z" clip-rule="evenodd"/>
</svg>
