<svg xmlns="http://www.w3.org/2000/svg" width="16" height="16" fill="currentColor" viewBox="0 0 16 16">
  <path fill-rule="evenodd" d="M0 14.943 1.057 16l1.221-1.222.783.783 1.218-1.218c.636.591 1.58 1.035 2.971 1.136l1.5.02c1.485-.018 2.484-.596 3.138-1.364l1.426 1.426 1.06-1.061-1.71-1.71A5.27 5.27 0 0 0 13 11V9.5h2V8h-2V5.622l1.374-1.375-.782-.782L16 1.057 14.943 0 0 14.943Zm4.717-2.603c.066.179.149.352.253.512.302.462.892.997 2.28 1.122V11h1.5v3c1.171-.02 1.785-.505 2.16-1.054.43-.629.59-1.429.59-1.946V6h-.443l-6.34 6.34Z" clip-rule="evenodd"/>
  <path d="M10.162.838c.317.318.546.704.684 1.136L9.82 3H9.5c0-.505-.165-.867-.4-1.1-.233-.235-.595-.4-1.1-.4-.505 0-.867.165-1.1.4-.235.233-.4.595-.4 1.1H5c0-.845.285-1.608.838-2.162C6.392.285 7.155 0 8 0s1.608.285 2.162.838ZM1 8h2V5.247l-1-1 1.06-1.06L4.375 4.5H8.32L6.82 6H4.5v2.32L3 9.82V9.5H1V8Z"/>
</svg>
