<svg xmlns="http://www.w3.org/2000/svg" width="16" height="16" fill="currentColor" viewBox="0 0 16 16">
  <path fill-rule="evenodd" d="M5.4 9.9c-.7-2.2 1.3-4.2 3.5-3.5.8.3 1.4.9 1.7 1.7.7 2.2-1.3 4.2-3.5 3.5-.8-.3-1.4-.9-1.7-1.7ZM6 8.4c.1.3.3.5.6.6.9.3 1.7-.5 1.4-1.4-.1-.3-.3-.5-.6-.6-.9-.3-1.7.5-1.4 1.4Z" clip-rule="evenodd"/>
  <path fill-rule="evenodd" d="M11.8 3H15c.6 0 1 .4 1 1v9c0 .6-.4 1-1 1H1c-.6 0-1-.4-1-1V4c0-.6.4-1 1-1h3.2l.6-1.4c.1-.3.5-.6.9-.6h4.6c.4 0 .8.3 1 .6l.5 1.4ZM9 12.6c1.3-.3 2.3-1.3 2.6-2.6.8-2.8-1.8-5.4-4.6-4.6-1.3.3-2.3 1.3-2.6 2.6-.8 2.8 1.8 5.4 4.6 4.6Z" clip-rule="evenodd"/>
</svg>
