<svg xmlns="http://www.w3.org/2000/svg" width="16" height="16" fill="currentColor" viewBox="0 0 16 16">
  <path d="M6 8.4c.1.3.3.5.6.6.9.3 1.7-.5 1.4-1.4-.1-.3-.3-.5-.6-.6-.9-.3-1.7.5-1.4 1.4Z"/>
  <path fill-rule="evenodd" d="M15 3h-3.2l-.5-1.4c-.2-.3-.6-.6-1-.6H5.7c-.4 0-.8.3-.9.6L4.2 3H1c-.6 0-1 .4-1 1v9c0 .6.4 1 1 1h14c.6 0 1-.4 1-1V4c0-.6-.4-1-1-1Zm-4.257 1.5-.714-2H6.046l-.857 2H1.5v8h4.562a4 4 0 1 1 3.876 0H14.5v-8h-3.757ZM10.5 9a2.5 2.5 0 1 1-5 0 2.5 2.5 0 0 1 5 0Z" clip-rule="evenodd"/>
</svg>
