<svg xmlns="http://www.w3.org/2000/svg" width="16" height="16" fill="currentColor" viewBox="0 0 16 16">
  <path fill-rule="evenodd" d="M14.943 0 0 14.943 1.057 16l2-2H15c.6 0 1-.4 1-1V4c0-.6-.4-1-1-1h-.94L16 1.057 14.943 0ZM10.68 6.38l-.712.713c.273.282.487.621.632 1.007.7 2.2-1.3 4.2-3.5 3.5a2.899 2.899 0 0 1-1.007-.632l-.712.712A3.68 3.68 0 0 0 9 12.6c1.3-.3 2.3-1.3 2.6-2.6a3.681 3.681 0 0 0-.92-3.62Z" clip-rule="evenodd"/>
  <path d="M7 5.4c.178-.051.356-.088.532-.112l3.735-3.735C11.058 1.269 10.679 1 10.3 1H5.7c-.4 0-.8.3-.9.6L4.2 3H1c-.6 0-1 .4-1 1v8.82l4.288-4.288c.024-.176.061-.354.112-.532.3-1.3 1.3-2.3 2.6-2.6Z"/>
</svg>
