<svg xmlns="http://www.w3.org/2000/svg" width="16" height="16" fill="currentColor" viewBox="0 0 16 16">
  <path fill-rule="evenodd" d="M14.943 0 0 14.943 1.057 16l2-2H15c.6 0 1-.4 1-1V4c0-.6-.4-1-1-1h-.94L16 1.057 14.943 0ZM10.86 6.202l1.7-1.702h1.94v8H9.938a3.999 3.999 0 0 0 .92-6.298Zm-1.061 1.06-3.535 3.536a2.5 2.5 0 0 0 3.535-3.535ZM5.202 11.86l-.641.641h1.501a4.013 4.013 0 0 1-.86-.641Z" clip-rule="evenodd"/>
  <path d="M10.105 2.715 10.03 2.5H6.046l-.857 2H1.5v6.82L0 12.82V4c0-.6.4-1 1-1h3.2l.6-1.4c.1-.3.5-.6.9-.6h4.6c.379 0 .758.27.967.553l-1.162 1.162Z"/>
  <path d="M7.816 5.004a4 4 0 0 0-3.812 3.812l3.812-3.812Z"/>
</svg>
