<svg xmlns="http://www.w3.org/2000/svg" width="16" height="16" fill="currentColor" viewBox="0 0 16 16">
  <path d="M11.587 5.548c.216-.49.336-1.031.336-1.6C11.923 1.767 10.167 0 8 0 5.834 0 4.077 1.767 4.077 3.947a3.939 3.939 0 0 0 3.508 3.925 5.48 5.48 0 0 1 4.002-2.324Zm-2.681 7.83c.66-1.436.7-3.136 0-4.65a3.908 3.908 0 0 1 5.132-1.094 3.96 3.96 0 0 1 1.436 5.392 3.91 3.91 0 0 1-6.568.352ZM3.507 7.126A5.481 5.481 0 0 0 7.51 9.452c.805 1.822.13 4-1.625 5.018a3.91 3.91 0 0 1-5.359-1.444 3.96 3.96 0 0 1 1.436-5.392 3.892 3.892 0 0 1 1.545-.508Z"/>
</svg>
