<svg xmlns="http://www.w3.org/2000/svg" width="16" height="16" fill="currentColor" viewBox="0 0 16 16">
  <path fill-rule="evenodd" d="M16 7.111C16 3.182 12.418 0 8 0a8 8 0 0 0 0 16c.72 0 1.333-.595 1.333-1.333 0-.347-.133-.658-.346-.898a1.336 1.336 0 0 1-.338-.88 1.33 1.33 0 0 1 1.333-1.333h1.574A4.446 4.446 0 0 0 16 7.11ZM8 5.5A1.25 1.25 0 1 0 8 3a1.25 1.25 0 0 0 0 2.5ZM5.5 6.75a1.25 1.25 0 1 1-2.5 0 1.25 1.25 0 0 1 2.5 0ZM11.75 8a1.25 1.25 0 1 0 0-2.5 1.25 1.25 0 0 0 0 2.5Z" clip-rule="evenodd"/>
</svg>
