<svg xmlns="http://www.w3.org/2000/svg" width="16" height="16" fill="currentColor" viewBox="0 0 16 16">
  <path d="M8 1.538c1.71 0 3.098 1.378 3.098 3.077 0 .419-.084.817-.236 1.18a4.65 4.65 0 0 0-3.264 1.871 3.1 3.1 0 0 1-2.282-1.514 3.043 3.043 0 0 1-.413-1.537c0-1.7 1.386-3.077 3.097-3.077Zm4.463 4.364c.12-.41.183-.84.183-1.287C12.646 2.066 10.566 0 8 0S3.354 2.066 3.354 4.615c0 .446.064.878.183 1.287a4.665 4.665 0 0 0-1.213.485 4.598 4.598 0 0 0-1.7 6.305c1.282 2.207 4.124 2.963 6.346 1.689a4.64 4.64 0 0 0 1.03-.8 4.67 4.67 0 0 0 1.03.8c2.222 1.274 5.064.518 6.347-1.69a4.598 4.598 0 0 0-1.7-6.304 4.665 4.665 0 0 0-1.214-.485Zm-3.57 6.355a4.584 4.584 0 0 0 .001-3.745 3.106 3.106 0 0 1 4.008-.793 3.065 3.065 0 0 1 1.134 4.203 3.109 3.109 0 0 1-5.142.335ZM7.509 9.205a3.07 3.07 0 0 1-1.313 3.844 3.109 3.109 0 0 1-4.23-1.127A3.066 3.066 0 0 1 3.097 7.72a3.1 3.1 0 0 1 1.146-.388 4.65 4.65 0 0 0 3.264 1.873Z"/>
</svg>
