<svg xmlns="http://www.w3.org/2000/svg" width="16" height="16" fill="currentColor" viewBox="0 0 16 16">
  <path fill-rule="evenodd" d="M11 8a3 3 0 1 1-6 0 3 3 0 0 1 6 0ZM9.5 8a1.5 1.5 0 1 1-3 0 1.5 1.5 0 0 1 3 0Z" clip-rule="evenodd"/>
  <path fill-rule="evenodd" d="M7.25 0v2.046A6.003 6.003 0 0 0 2.046 7.25H0v1.5h2.046a6.003 6.003 0 0 0 5.204 5.204V16h1.5v-2.046a6.003 6.003 0 0 0 5.204-5.204H16v-1.5h-2.046A6.003 6.003 0 0 0 8.75 2.046V0h-1.5ZM8 12.5a4.5 4.5 0 1 0 0-9 4.5 4.5 0 0 0 0 9Z" clip-rule="evenodd"/>
</svg>
