<svg xmlns="http://www.w3.org/2000/svg" width="16" height="16" fill="currentColor" viewBox="0 0 16 16">
  <path d="M10.17 2.576a4.841 4.841 0 0 0-1.42-.396V.5h-1.5v1.652a5.344 5.344 0 0 0-1.694.42c-.673.296-1.195.707-1.572 1.23-.383.534-.56 1.176-.557 1.83-.004.856.273 1.524.824 2.018.56.5 1.335.867 2.331 1.096l1.22.285c.428.1.785.21 1.067.332.288.119.512.266.663.446.154.182.23.41.234.648a1.138 1.138 0 0 1-.25.703 1.529 1.529 0 0 1-.673.468c-.284.11-.623.162-1.013.162a3 3 0 0 1-1.141-.203 1.783 1.783 0 0 1-.79-.614 1.842 1.842 0 0 1-.314-.89H3.128c.028.838.23 1.526.597 2.072.387.575.93 1.005 1.634 1.29.553.223 1.182.36 1.891.41V15.5h1.5v-1.669a5.618 5.618 0 0 0 1.556-.37c.672-.273 1.18-.665 1.533-1.17.352-.506.532-1.114.536-1.83a3.238 3.238 0 0 0-.23-1.22 2.768 2.768 0 0 0-.66-.956 4.002 4.002 0 0 0-1.083-.726 6.946 6.946 0 0 0-1.5-.493L7.9 6.838a5.793 5.793 0 0 1-.733-.205 2.728 2.728 0 0 1-.576-.277 1.299 1.299 0 0 1-.38-.395.965.965 0 0 1-.118-.528c.005-.237.075-.45.212-.635.139-.191.343-.335.602-.437.262-.102.583-.151.957-.151.566 0 1.02.12 1.347.38.302.234.481.554.54.95h2.461a3.271 3.271 0 0 0-.54-1.724c-.353-.53-.853-.944-1.502-1.24Z"/>
</svg>
