<svg xmlns="http://www.w3.org/2000/svg" width="16" height="16" fill="currentColor" viewBox="0 0 16 16">
  <path d="M10.967 3.447c-.492-.57-1.22-1.002-2.217-1.145V.5h-1.5v1.797c-.992.128-1.755.51-2.299 1.041C4.291 3.982 4 4.802 4 5.5c0 .703.267 1.43.93 2.026.643.577 1.61.99 2.947 1.214 1.388.231 1.929.668 2.148.96.22.293.225.577.225.8 0 .391-.1.814-.377 1.131-.26.297-.779.619-1.873.619-1.317 0-1.958-.429-2.29-.844-.357-.447-.46-1.008-.46-1.406h-1.5c0 .602.147 1.54.79 2.344.563.704 1.44 1.22 2.71 1.365V15.5h1.5v-1.795c1.012-.126 1.752-.515 2.252-1.086.598-.683.748-1.51.748-2.119 0-.614-.151-1.202-.525-1.7-.53-.708-1.49-1.271-3.102-1.54-1.177-.196-1.836-.532-2.19-.85-.333-.3-.433-.613-.433-.91 0-.302.134-.732.499-1.088.351-.343.965-.662 2.001-.662 1.008 0 1.541.34 1.832.678.315.364.418.807.418 1.072h1.5a3.23 3.23 0 0 0-.783-2.053Z"/>
</svg>
