<svg xmlns="http://www.w3.org/2000/svg" width="16" height="16" fill="currentColor" viewBox="0 0 16 16">
  <path d="M3.333 8c0 .23.308.633 1.02 1.026.923.51 2.232.816 3.647.816 1.415 0 2.724-.306 3.646-.816.713-.393 1.02-.795 1.02-1.026V6.4c-1.1.751-2.781 1.232-4.666 1.232-1.885 0-3.567-.48-4.667-1.232V8Zm9.334 2.084c-1.1.752-2.782 1.232-4.667 1.232-1.885 0-3.567-.48-4.667-1.232v1.6c0 .231.308.633 1.02 1.027.923.51 2.232.815 3.647.815 1.415 0 2.724-.306 3.646-.815.713-.394 1.02-.796 1.02-1.027v-1.6ZM2 11.684V4.316C2 2.485 4.686 1 8 1s6 1.485 6 3.316v7.368C14 13.516 11.314 15 8 15s-6-1.485-6-3.316Zm6-5.526c1.415 0 2.724-.306 3.646-.816.713-.394 1.02-.795 1.02-1.026 0-.231-.307-.633-1.02-1.027-.922-.51-2.23-.815-3.646-.815-1.415 0-2.724.306-3.646.815-.713.394-1.02.796-1.02 1.027 0 .23.307.632 1.02 1.026.922.51 2.23.816 3.646.816Z"/>
</svg>
