<svg xmlns="http://www.w3.org/2000/svg" width="16" height="16" fill="currentColor" viewBox="0 0 16 16">
  <path d="M14.5 6H16a5.981 5.981 0 0 0-1.757-4.243A6 6 0 0 0 4 6c0 2.528 1.637 4.82 4.014 5.664A4 4 0 1 0 16 12h-1.5a2.49 2.49 0 0 1-.718 1.753A2.492 2.492 0 0 1 12 14.5c-1.375 0-2.505-1.15-2.5-2.52.005-.555.19-1.067.5-1.48a4.502 4.502 0 0 1 0-9 4.48 4.48 0 0 1 2.862 1.028A4.49 4.49 0 0 1 14.5 6Z"/>
  <path d="M10 8a2 2 0 1 0 0-4 2 2 0 0 0 0 4ZM2.5 6c0 2.03.806 3.871 2.116 5.221l-1.06 1.061A8.97 8.97 0 0 1 1 6 8.96 8.96 0 0 1 2.784.62l1.074 1.075A7.466 7.466 0 0 0 2.5 6Z"/>
</svg>
