<svg xmlns="http://www.w3.org/2000/svg" width="16" height="16" fill="currentColor" viewBox="0 0 16 16">
  <path d="M12 6a2 2 0 1 1-4 0 2 2 0 0 1 4 0Z"/>
  <path fill-rule="evenodd" d="M15.201 8.993a6 6 0 1 0-7.18 2.673A2.64 2.64 0 0 0 8 12a4 4 0 0 0 8 0c0-1.199-.233-2.274-.799-3.007ZM10 9.5a3.5 3.5 0 1 0 0-7 3.5 3.5 0 0 0 0 7Z" clip-rule="evenodd"/>
  <path d="M2.5 6c0 2.03.806 3.871 2.116 5.221l-1.06 1.061A8.97 8.97 0 0 1 1 6 8.96 8.96 0 0 1 2.784.62l1.074 1.075A7.466 7.466 0 0 0 2.5 6Z"/>
</svg>
