<svg xmlns="http://www.w3.org/2000/svg" width="16" height="16" fill="currentColor" viewBox="0 0 16 16">
  <path fill-rule="evenodd" d="M0 14.943 1.057 16l2.998-2.998C5.279 13.636 6.652 14 8 14c3.595 0 7.373-2.586 8-6-.304-1.657-1.351-3.119-2.759-4.185L16 1.057 14.943 0 0 14.943Zm5.179-3.065c.906.4 1.881.622 2.821.622 1.453 0 2.991-.53 4.23-1.432 1.149-.838 1.944-1.924 2.235-3.068-.291-1.144-1.086-2.23-2.236-3.068l-.06-.044-1.586 1.585a3 3 0 0 1-4.11 4.11L5.18 11.878Zm2.43-2.43a1.502 1.502 0 0 0 1.84-1.84l-1.84 1.84Z" clip-rule="evenodd"/>
  <path d="M9.204 3.616A6.493 6.493 0 0 0 8 3.5c-1.453 0-2.991.53-4.23 1.432C2.622 5.77 1.827 6.856 1.536 8c.19.747.595 1.468 1.172 2.113l-1.062 1.061C.812 10.264.217 9.182 0 8c.627-3.413 4.405-6 8-6 .817 0 1.643.134 2.44.38L9.204 3.616Z"/>
  <path d="M7.814 5.006a3 3 0 0 0-2.808 2.808l2.808-2.808Z"/>
</svg>
