<svg xmlns="http://www.w3.org/2000/svg" width="16" height="16" fill="currentColor" viewBox="0 0 16 16">
  <path fill-rule="evenodd" d="M0 14.943 1.057 16l2.998-2.998C5.279 13.636 6.652 14 8 14c3.595 0 7.373-2.586 8-6-.304-1.657-1.351-3.119-2.759-4.185L16 1.057 14.943 0 0 14.943Zm6.231-4.117a3.333 3.333 0 0 0 4.595-4.595l-.986.985A2 2 0 0 1 7.216 9.84l-.985.986Z" clip-rule="evenodd"/>
  <path d="M8.15 4.67 8 4.667A3.333 3.333 0 0 0 4.67 8.15l-3.025 3.024C.812 10.264.217 9.182 0 8c.627-3.413 4.405-6 8-6 .817 0 1.643.134 2.44.38L8.15 4.67Z"/>
</svg>
