<svg xmlns="http://www.w3.org/2000/svg" width="16" height="16" fill="currentColor" viewBox="0 0 16 16">
  <path d="M.13 5a5.65 5.65 0 0 0-.13.55c.243 1.321.957 2.518 1.95 3.49L.47 10.52l1.06 1.06 1.588-1.587a9.15 9.15 0 0 0 1.9.99l-.714 1.789 1.392.557.772-1.93c.508.1 1.022.151 1.532.151s1.024-.052 1.532-.151l.772 1.93 1.392-.557-.715-1.788a9.174 9.174 0 0 0 1.901-.991l1.588 1.588 1.06-1.061-1.48-1.48c.993-.972 1.707-2.169 1.95-3.49a5.667 5.667 0 0 0-.13-.55C14.962 7.517 11.4 8.55 8 8.55 4.601 8.55 1.038 7.517.13 5Z"/>
</svg>
