<svg xmlns="http://www.w3.org/2000/svg" width="16" height="16" fill="currentColor" viewBox="0 0 16 16">
  <path fill-rule="evenodd" d="M11 8a3 3 0 1 1-6 0 3 3 0 0 1 6 0ZM9.5 8a1.5 1.5 0 1 1-3 0 1.5 1.5 0 0 1 3 0Z" clip-rule="evenodd"/>
  <path fill-rule="evenodd" d="M8 2c3.595 0 7.373 2.587 8 6-.627 3.414-4.405 6-8 6-3.595 0-7.373-2.586-8-6 .627-3.413 4.405-6 8-6Zm-4.23 9.068C2.622 10.23 1.827 9.144 1.536 8c.29-1.144 1.084-2.23 2.234-3.068C5.009 4.029 6.547 3.5 8 3.5c1.452 0 2.99.53 4.228 1.432 1.15.838 1.945 1.924 2.236 3.068-.291 1.144-1.086 2.23-2.236 3.068C10.991 11.971 9.453 12.5 8 12.5c-1.453 0-2.991-.53-4.23-1.432Z" clip-rule="evenodd"/>
</svg>
