<svg xmlns="http://www.w3.org/2000/svg" width="16" height="16" fill="currentColor" viewBox="0 0 16 16">
  <path fill-rule="evenodd" d="m11.496 9.452 1.527-1.523-.71-.708 2.443-2.436s.61-.61-.1-1.317l-2.13-2.125c-.71-.709-1.321-.1-1.321-.1L8.762 3.68l-.71-.709-1.528 1.523 4.972 4.958Zm.32-6.7 1.426 1.424-2.456 2.45L9.36 5.201l2.456-2.45ZM9.855 9.71 6.304 6.17l-4.367 4.354c-1.072 1.069-.93 3.762-.93 3.762l.71.708s2.7.14 3.771-.928L9.855 9.71Zm-1.981-.148-1.42-1.417-3.452 3.442c-.243.243-.443.823-.537 1.59-.017.139-.03.274-.038.4a7.92 7.92 0 0 0 .4-.038c.77-.094 1.352-.293 1.596-.536l3.45-3.441Z" clip-rule="evenodd"/>
</svg>
