<svg xmlns="http://www.w3.org/2000/svg" width="16" height="16" fill="currentColor" viewBox="0 0 16 16">
  <path d="M2.247 8.693C1.155 7.488.527 6.117.277 5.197l1.447-.394C2.184 6.49 4.094 9.75 8 9.75c3.905 0 5.816-3.26 6.276-4.947l1.447.394c-.25.92-.878 2.29-1.97 3.496l1.777 1.777-1.06 1.06-1.82-1.82a7.41 7.41 0 0 1-1.758 1.002l.804 2.01-1.392.557-.862-2.154A8.184 8.184 0 0 1 8 11.25c-.509 0-.989-.044-1.442-.125l-.862 2.154-1.392-.557.803-2.01A7.436 7.436 0 0 1 3.35 9.71l-1.82 1.82-1.06-1.06 1.777-1.777Z"/>
</svg>
