<svg xmlns="http://www.w3.org/2000/svg" width="16" height="16" fill="currentColor" viewBox="0 0 16 16">
  <path fill-rule="evenodd" d="M1.988 2.722A7.987 7.987 0 0 0 .354 5.641 2.995 2.995 0 0 1 1.5 8c0 .957-.448 1.81-1.146 2.36a7.991 7.991 0 0 0 1.634 2.918 3 3 0 0 1 4.256 2.529 8.026 8.026 0 0 0 3.512 0 3 3 0 0 1 4.256-2.53 7.987 7.987 0 0 0 1.634-2.918A2.995 2.995 0 0 1 14.5 8c0-.957.448-1.81 1.146-2.36a7.987 7.987 0 0 0-1.634-2.918A3 3 0 0 1 9.756.193a8.028 8.028 0 0 0-3.512 0 3 3 0 0 1-4.256 2.53ZM8 10.5a2.5 2.5 0 1 0 0-5 2.5 2.5 0 0 0 0 5Z" clip-rule="evenodd"/>
</svg>
