<svg xmlns="http://www.w3.org/2000/svg" width="16" height="16" fill="currentColor" viewBox="0 0 16 16">
  <path d="M8.125 1.894c0 .477.163.915.434 1.255a6.946 6.946 0 0 0-.865.24 2.36 2.36 0 0 1-.289.719 3.525 3.525 0 0 1-.78-2.286A3.292 3.292 0 0 1 5 2.25a3.292 3.292 0 0 1-1.626-.428l.001.072c0 1.326-.743 2.528-1.875 3.104v.004c1.038.528 1.749 1.583 1.86 2.777a6.983 6.983 0 0 0-.357 2.018A4.98 4.98 0 0 1 1.7 8.931c.112-.25.174-.53.174-.825 0-1.04-.775-1.893-1.754-1.958a5.482 5.482 0 0 1 0-2.296c.98-.065 1.754-.917 1.754-1.958a2.03 2.03 0 0 0-.174-.825A4.937 4.937 0 0 1 3.526 0c.343.457.876.75 1.474.75S6.131.457 6.474 0A4.95 4.95 0 0 1 8.3 1.069a2.03 2.03 0 0 0-.174.825Z"/>
  <path d="M3.5 5c0 .497.242.937.614 1.21a7.03 7.03 0 0 1 .788-1.007A2.386 2.386 0 0 0 6.5 4.967 1.5 1.5 0 0 0 3.5 5Z"/>
  <path fill-rule="evenodd" d="M10 12.25a2.25 2.25 0 1 0 0-4.5 2.25 2.25 0 0 0 0 4.5Zm.75-2.25a.75.75 0 1 1-1.5 0 .75.75 0 0 1 1.5 0Z" clip-rule="evenodd"/>
  <path fill-rule="evenodd" d="M11.378 4.145c.078 1.175 1.1 2.105 2.35 2.105.353 0 .689-.075.99-.208A5.925 5.925 0 0 1 16 8.23a2.212 2.212 0 0 0-.9 1.77c0 .718.352 1.357.9 1.77a5.925 5.925 0 0 1-1.282 2.188 2.436 2.436 0 0 0-.99-.208c-1.25 0-2.272.93-2.35 2.105a6.58 6.58 0 0 1-2.756 0c-.078-1.175-1.1-2.105-2.35-2.105-.353 0-.689.075-.99.208A5.924 5.924 0 0 1 4 11.77c.548-.412.9-1.051.9-1.769S4.548 8.643 4 8.23a5.924 5.924 0 0 1 1.282-2.188c.301.133.637.208.99.208 1.25 0 2.272-.93 2.35-2.105a6.578 6.578 0 0 1 2.756 0Zm-5.62 3.783a3.66 3.66 0 0 1 0 4.144c.037.067.076.133.116.198.132-.013.265-.02.399-.02 1.543 0 2.929.9 3.533 2.246a5.185 5.185 0 0 0 .388 0c.604-1.346 1.99-2.246 3.533-2.246.134 0 .268.007.399.02.04-.065.079-.131.116-.198A3.66 3.66 0 0 1 13.6 10c0-.773.24-1.483.642-2.072a4.32 4.32 0 0 0-.116-.198c-.131.013-.264.02-.399.02-1.543 0-2.929-.9-3.533-2.246a5.165 5.165 0 0 0-.388 0C9.202 6.85 7.816 7.75 6.273 7.75c-.134 0-.267-.007-.399-.02-.04.065-.079.131-.116.198Z" clip-rule="evenodd"/>
</svg>
