<svg xmlns="http://www.w3.org/2000/svg" width="16" height="16" fill="currentColor" viewBox="0 0 16 16">
  <path fill-rule="evenodd" d="M11 8a3 3 0 1 1-6 0 3 3 0 0 1 6 0ZM9.5 8a1.5 1.5 0 1 1-3 0 1.5 1.5 0 0 1 3 0Z" clip-rule="evenodd"/>
  <path fill-rule="evenodd" d="M.354 5.64a7.991 7.991 0 0 1 1.634-2.918A3 3 0 0 0 6.244.193a8.027 8.027 0 0 1 3.512 0 3 3 0 0 0 4.256 2.53 7.987 7.987 0 0 1 1.634 2.918A2.995 2.995 0 0 0 14.5 8c0 .957.448 1.81 1.146 2.36a7.987 7.987 0 0 1-1.634 2.918 3 3 0 0 0-4.256 2.529 8.026 8.026 0 0 1-3.512 0 3 3 0 0 0-4.256-2.53A7.987 7.987 0 0 1 .354 10.36 2.995 2.995 0 0 0 1.5 8c0-.957-.448-1.81-1.146-2.36ZM3 8a4.48 4.48 0 0 0-.91-2.712c.135-.293.291-.574.466-.841a4.501 4.501 0 0 0 4.93-2.927 6.614 6.614 0 0 1 1.027 0 4.501 4.501 0 0 0 4.93 2.927c.176.267.332.548.466.84A4.483 4.483 0 0 0 13 8c0 1.019.34 1.959.91 2.712a6.484 6.484 0 0 1-.466.841 4.501 4.501 0 0 0-4.93 2.927 6.6 6.6 0 0 1-1.027 0 4.501 4.501 0 0 0-4.93-2.927 6.486 6.486 0 0 1-.466-.84A4.495 4.495 0 0 0 3 8Z" clip-rule="evenodd"/>
</svg>
