<svg xmlns="http://www.w3.org/2000/svg" width="16" height="16" fill="currentColor" viewBox="0 0 16 16">
  <path fill-rule="evenodd" d="M4.01 2.82a3.947 3.947 0 0 1 .857-1.459c.201.09.426.139.662.139.835 0 1.518-.62 1.57-1.403a4.407 4.407 0 0 1 1.842 0c.053.783.736 1.403 1.57 1.403.237 0 .461-.05.663-.139.385.418.68.914.857 1.46A1.47 1.47 0 0 0 11.429 4c0 .479.235.905.601 1.18a3.948 3.948 0 0 1-.856 1.459 1.632 1.632 0 0 0-.662-.139c-.835 0-1.518.62-1.57 1.403a4.407 4.407 0 0 1-1.843 0C7.047 7.12 6.364 6.5 5.53 6.5c-.236 0-.46.05-.662.139a3.947 3.947 0 0 1-.857-1.46c.366-.274.601-.7.601-1.179 0-.479-.235-.905-.6-1.18ZM9.775 4c0 .966-.786 1.75-1.755 1.75A1.752 1.752 0 0 1 6.266 4c0-.966.785-1.75 1.754-1.75.97 0 1.755.784 1.755 1.75Z" clip-rule="evenodd"/>
  <path d="M5.025 8.506c.625.004 1.096.315 1.48.778.656.796 1.43 1.284 2.498 1.284 1.022.226 2.025 1.933 1.022 1.933-1.002 0-3.54-1.06-4.275-1.989a2.717 2.717 0 0 1-.136-.184c-.123-.178-.261-.377-.44-.443-.64-.237-1.45.083-1.952.408l-.108.07c-.397.258-.878.571-1.474.733l.506 2.52c1.017-.43 1.95-.669 2.982-.213.263.117.546.275.84.44.685.383 1.43.8 2.127.8.727 0 1.848-.381 3.059-1.095 1.19-.702 2.372-1.67 3.22-2.726.369-.46.241-.788-.376-.48l-.909.452c0-.837-1.084-.276-1.362 0l-.055-.056c-.35-.351-.822-.824-1.28-.369l-.868-.917c.31-.309.538-.516.796-.602.342-.114.967-.102 1.49.24.616-.3 1.451-.578 2.038-.056 2.044-.654 2.76 1.178 1.59 2.636-.969 1.206-2.284 2.276-3.59 3.046C10.56 15.474 9.184 16 8.094 16c-.803 0-1.51-.352-2.21-.701-.97-.483-1.923-.958-3.094-.48-.491.2-.959.448-1.427.696l-.205.108L0 9.848c.976 0 1.637-.15 2.48-.694.617-.398 1.41-.7 2.545-.648Z"/>
</svg>
