<svg xmlns="http://www.w3.org/2000/svg" width="16" height="16" fill="currentColor" viewBox="0 0 16 16">
  <path fill-rule="evenodd" d="M4 2.82a3.95 3.95 0 0 1 .855-1.459c.2.09.424.139.66.139.833 0 1.514-.62 1.566-1.403a4.385 4.385 0 0 1 1.838 0C8.97.88 9.652 1.5 10.485 1.5c.236 0 .46-.05.66-.139.385.418.68.914.855 1.46-.365.274-.6.7-.6 1.179 0 .479.235.905.6 1.18a3.948 3.948 0 0 1-.855 1.459c-.2-.09-.424-.139-.66-.139-.833 0-1.514.62-1.566 1.403a4.385 4.385 0 0 1-1.838 0C7.03 7.12 6.348 6.5 5.515 6.5c-.236 0-.46.05-.66.139A3.95 3.95 0 0 1 4 5.179c.365-.274.6-.7.6-1.179 0-.479-.235-.905-.6-1.18ZM9.308 4c0 .69-.586 1.25-1.308 1.25-.722 0-1.308-.56-1.308-1.25S7.278 2.75 8 2.75c.722 0 1.308.56 1.308 1.25Z" clip-rule="evenodd"/>
  <path d="M13.9 10.2c.5-.3 1.6-.8 2-.1.4.7-.5 1.3-.5 1.3S10 16 8 16c-.612 0-1.688-.526-2.643-.993-.762-.372-1.446-.707-1.757-.707-1 0-2.7.9-2.7.9L0 10.7c.86 0 1.491-.41 2.134-.829C2.838 9.414 3.555 8.948 4.6 9c.633 0 1.102.572 1.556 1.126l.144.174c1.1 1.4 3.5 1.4 3.5 1.4s.9 0 .9.4c0 .5-.9.4-.9.4H7.4c-.9 0-2.1-.3-2.1-.3.653.735 1.44 1.003 1.815 1.131.084.029.148.05.185.069.2.1 2 0 2 0 1.8 0 2.3-.4 2.3-1.3 0-1.392-1.287-1.346-2.28-1.31-.148.005-.29.01-.42.01.4-.4 2-1.4 2.4-1.4.4 0 .8.5.8.5.3-.4 1.1-.6 1.5-.4.4.2.3.7.3.7Z"/>
</svg>
