<svg xmlns="http://www.w3.org/2000/svg" width="16" height="16" fill="currentColor" viewBox="0 0 16 16">
  <path d="M8.299 1.069A4.937 4.937 0 0 0 6.474 0C6.131.457 5.598.75 5 .75A1.843 1.843 0 0 1 3.526 0 4.937 4.937 0 0 0 1.7 1.069c.112.25.174.53.174.825 0 1.04-.775 1.893-1.754 1.958a5.482 5.482 0 0 0 0 2.296c.98.066 1.754.917 1.754 1.958 0 .295-.062.575-.174.825a4.98 4.98 0 0 0 1.302.866 6.963 6.963 0 0 1 1.052-3.495A1.659 1.659 0 0 1 3.438 5c0-.903.7-1.635 1.562-1.635.78 0 1.426.598 1.543 1.379.53-.278.935-.76 1.11-1.341.294-.104.596-.19.906-.254a2.009 2.009 0 0 1-.434-1.255c0-.295.062-.575.174-.825Z"/>
  <path fill-rule="evenodd" d="M4 8.23a5.924 5.924 0 0 1 1.282-2.188c.301.133.637.208.99.208 1.25 0 2.272-.93 2.35-2.105a6.578 6.578 0 0 1 2.756 0c.078 1.175 1.1 2.105 2.35 2.105.353 0 .689-.075.99-.208A5.925 5.925 0 0 1 16 8.23a2.212 2.212 0 0 0-.9 1.77c0 .718.352 1.357.9 1.77a5.925 5.925 0 0 1-1.282 2.188 2.436 2.436 0 0 0-.99-.208c-1.25 0-2.272.93-2.35 2.105a6.58 6.58 0 0 1-2.756 0c-.078-1.175-1.1-2.105-2.35-2.105-.353 0-.689.075-.99.208A5.924 5.924 0 0 1 4 11.77c.548-.412.9-1.051.9-1.769S4.548 8.643 4 8.23ZM11.962 10c0 1.036-.879 1.875-1.962 1.875S8.038 11.035 8.038 10c0-1.036.879-1.875 1.962-1.875s1.962.84 1.962 1.875Z" clip-rule="evenodd"/>
</svg>
