<svg xmlns="http://www.w3.org/2000/svg" width="16" height="16" fill="currentColor" viewBox="0 0 16 16">
  <path fill-rule="evenodd" d="M16 8A8 8 0 1 1 0 8a8 8 0 0 1 16 0Zm-4.307 5.35A6.47 6.47 0 0 1 8 14.5c-.7 0-1.374-.11-2.006-.316.013-.043.106-.01.106-.084V14c.1-.1.1-.1.3-.1l.2-.1v-.2c0-.1.2-.1.2-.1.043-.043.067-.067.081-.096.02-.04.02-.089.02-.204 0-.1.1-.2.2-.2.05 0 .05-.025.05-.05s0-.05.05-.05c0-.1 0-.1.1-.1.069-.07.041-.188.018-.287A.564.564 0 0 1 7.3 12.4l.1-.1c.05 0 .075-.025.1-.05.025-.025.05-.05.1-.05 0-.1.3-.2.3-.2 0-.05.025-.1.05-.15.025-.05.05-.1.05-.15 0 0 .1-.3.1-.4l.1-.4c.196 0 .179-.043.143-.129A.413.413 0 0 1 8.3 10.6c0-.047.011-.106.023-.167.038-.2.083-.433-.223-.433-.064 0-.051-.044-.051-.044-.003-.002-.013.008-.049.044-.05 0-.075-.025-.1-.05-.025-.025-.05-.05-.1-.05 0 .1-.2 0-.1 0v-.2c0-.1 0-.2-.1-.3-.05-.05-.075-.05-.1-.05-.025 0-.05 0-.1-.05l-.1-.1s-.1-.1-.1 0c-.1 0-.1 0-.2-.1-.05 0-.05-.025-.05-.05S6.95 9 6.9 9c0 0-.1 0-.1-.1s-.1-.1-.1-.1 0-.1-.1-.1h-.4c-.2 0-.2-.2-.2-.2-.05 0-.075.025-.1.05-.025.025-.05.05-.1.05h-.2l-.1.1h-.1c-.037 0-.033.04-.028.091C5.38 8.88 5.39 9 5.2 9c0-.1 0-.2-.1-.2 0 .1-.2.1-.3.1 0-.1 0-.2-.1-.2 0-.05-.025-.1-.05-.15a.355.355 0 0 1-.05-.15c-.05 0-.05-.075-.05-.15s0-.15-.05-.15v.1h-.3a.144.144 0 0 0-.027-.082c-.02-.033-.035-.056.027-.118 0-.1.1-.2.1-.2s.1-.1.2-.1 0-.2 0-.1c0 0-.1 0-.1.1 0 0-.1.1-.1 0-.1.1-.2.3-.1.3H4c-.04 0-.08-.032-.12-.064-.06-.048-.12-.096-.18-.036 0-.05-.025-.1-.05-.15-.025-.05-.05-.1-.05-.15v-.4c0-.2.1-.4.4-.4.1 0 .1.1.1.1h.2c0-.1 0-.1-.1-.1.1 0 .3 0 .3.1a.315.315 0 0 0 .11-.027c.052-.02.09-.035.09.027 0 .05.025.1.05.15.025.05.05.1.05.15v.1c.1 0 .1-.1.1-.2s0-.3-.1-.3c0-.1.05-.15.1-.2.05-.05.1-.1.1-.2.067 0 .133-.089.2-.178.033-.044.067-.089.1-.122l.1-.1c0-.05.025-.075.05-.1.025-.025.05-.05.05-.1l.2-.1s0-.2.1-.3l.1-.1c.05 0 .1-.025.15-.05.05-.025.1-.05.15-.05v.1h.1v-.1s-.1 0-.1-.1c-.1 0-.1-.1-.1-.1H6c-.041 0-.083.034-.131.074-.069.057-.152.126-.269.126 0-.1.3-.4.4-.4.085-.043.189-.03.295-.019.143.017.29.034.405-.081 0 0 .3.1.3 0 0 0 0-.1.1-.1 0-.1-.1-.1-.2-.1 0-.1-.1 0-.1 0 0-.1 0-.1-.1-.1 0-.05-.05-.1-.1-.15-.05-.05-.1-.1-.1-.15-.1 0-.2-.3-.2-.3 0 .1-.1.2-.1.2 0 .062-.038.047-.09.027A.315.315 0 0 0 6 4v-.4c-.07.035-.091.046-.097.04-.003-.002-.003-.008-.003-.015 0-.025 0-.075-.1-.125-.067.133-.133.089-.2.044-.033-.022-.067-.044-.1-.044h-.1c0 .033.011.078.022.122.023.09.045.178-.022.178 0 .05.025.05.05.05s.05 0 .05.05c.067.067.045.133.022.2-.01.033-.022.067-.022.1.2.1-.1.2-.1.1-.1 0-.1.1 0 .2 0 .05 0 .075.013.087.012.013.037.013.087.013 0 .1-.2.1-.2.1 0-.1-.1-.2-.1-.2 0-.1-.2-.3-.2-.2-.1 0-.2 0-.2-.1 0 0-.1 0-.1-.1-.095 0-.144 0-.192-.01A.967.967 0 0 1 4.3 4c0-.05-.05-.1-.1-.15-.05-.05-.1-.1-.1-.15a.473.473 0 0 0-.011-.084c-.02-.1-.042-.216.111-.216l.2-.1c.045-.045.09-.03.126-.016.044.015.074.026.074-.084 0-.088.077-.175.096-.128a.953.953 0 0 1 .003.048c-.012.104-.105.28-.199.28.07.07.188.042.287.02.043-.01.083-.02.113-.02h.2c-.044-.044-.107-.068-.164-.09-.073-.03-.136-.054-.136-.11 0 0 .2 0 .2-.1v-.3h-.1v-.1c0 .1-.1 0-.1 0s.1.1 0 .1c0 .1 0 .2-.1.4v-.1a.077.077 0 0 0-.004-.028c-.008-.087-.03-.172-.096-.172 0 .187-.078.102-.16.011-.05-.054-.102-.111-.14-.111a.091.091 0 0 0-.07-.095A6.47 6.47 0 0 1 8 1.5a6.47 6.47 0 0 1 3.775 1.208c-.021.028-.043.06-.075.092 0 0-.4.3-.2.3 0 .117-.171.166-.314.206-.1.028-.186.053-.186.094 0 0-.2 0-.1.1l.1.2c.041 0 .083.017.132.037a.654.654 0 0 0 .268.063s.1 0 .1-.1c0 .1.1.3.1.3 0 .1 0 .2-.1.1v-.2c0-.062-.038-.047-.09-.027a.315.315 0 0 1-.11.027c0 .1 0 .2.1.2 0 .05-.05.05-.112.05-.063 0-.138 0-.188.05-.05 0-.1.05-.137.087-.038.038-.063.063-.063.013a.202.202 0 0 0-.053.099c-.012.041-.018.06-.105.02-.001-.01-.013-.019-.042-.019l.042.02c.001.029-.07.08-.142.08 0-.1 0-.2-.1-.2 0-.1 0-.1-.1-.2-.062-.062-.047-.085-.027-.118A.143.143 0 0 0 10.4 3.9c-.05 0-.075.025-.1.05-.025.025-.05.05-.1.05v-.1s.1-.1 0-.1c0 .1-.05.1-.1.1s-.1 0-.1.1c0 .05.025.075.05.1.025.025.05.05.05.1.2 0 .2 0 .2.2.2.1-.1 0-.1 0a.315.315 0 0 1-.027.109c-.02.053-.035.091.027.091h.1v.1h.1c0 .033.033.067.07.104.062.061.134.133.08.232A1.047 1.047 0 0 1 10.4 5l-.1.2-.019.038c-.02.012-.054.012-.093.012-.063 0-.138 0-.188.05h-.1l-.1.4c0 .2.1.3.3.3 0 0 .4 0 0-.4 0-.05.025-.075.05-.1.025-.025.05-.05.05-.1l.081-.162a.043.043 0 0 0 .02-.038c.1 0 .1 0 .1.1.1 0 .2 0 .2-.1-.1 0-.1-.1-.1-.1a.282.282 0 0 0 .049-.064c.09.014.198.016.25-.036 0 0 .1 0 .1-.1.05 0 .075.05.1.1.025.05.05.1.1.1.05.05.1.075.15.1.05.025.1.05.15.1.1 0 .1.2.1.3.05-.05.075-.05.088-.05l.008-.001c.004-.003.004-.013.004-.049 0 0 .1.1.1 0 0 0 0-.1-.1-.1v-.1c-.117 0-.166-.069-.206-.125-.028-.04-.053-.075-.094-.075 0-.05-.025-.075-.05-.1-.025-.025-.05-.05-.05-.1.06-.06.155.023.243.099.06.052.117.101.157.101l.2.1c.1 0 0 .2 0 .2.036 0 .046 0 .049.005l.001.007c0 .013 0 .038.05.088.04.04.048.094.056.147.012.08.023.153.144.153 0-.05.05-.1.088-.138.037-.037.062-.062.012-.062a.473.473 0 0 0-.011-.084c-.02-.1-.042-.216.111-.216.1 0 .2 0 .2.1s0 .2.1.3h.1c0-.062.038-.124.091-.209.033-.053.07-.115.11-.191 0-.2.1-.2.1 0 .04 0 .048.017.056.037.012.029.026.063.143.063 0 0 .1-.1.1 0 .05 0 .075.025.1.05.025.025.05.05.1.05a.463.463 0 0 0 .122.078c.09.044.178.089.178.222.2 0-.1.2-.1.1-.125.063-.172.007-.214-.043-.025-.03-.049-.057-.086-.057 0 .2-.1 0-.1 0 0 .047-.087.05-.19.05a.127.127 0 0 1-.01-.05H13a.81.81 0 0 1 .068.05c-.107 0-.22.003-.268.05l.2.1s.248 0 .068-.15h.042c.005.012.011.022.017.032.02.033.035.056-.027.118 0 .05-.025.075-.05.1-.025.025-.05.05-.05.1-.1 0-.1.1 0 .1 0 .1-.1.1-.2.1 0 .033.022.078.055.122C12.73 6.5 12.56 6.5 12.5 6.5c0-.1-.1-.1-.1-.1 0 .1-.3.2-.4.2-.1 0-.2 0-.2-.1h-.2s-.2-.4-.3-.4c-.028 0-.08-.008-.14-.017-.153-.023-.36-.055-.36.017-.1 0-.3.1-.3.2 0 0-.2.1-.2 0-.05 0-.075 0-.087.012-.013.013-.013.038-.013.088-.05 0-.075.025-.1.05-.025.025-.05.05-.1.05s-.05-.025-.05-.025 0 .025-.05.125l-.1.3V7a.559.559 0 0 0-.082.109c-.032.053-.056.091-.118.091-.064.064-.087.046-.095.051-.005.003-.005.013-.005.049 0 .05-.025.075-.05.1-.025.025-.05.05-.05.1-.1.1-.1.2-.1.4 0 .1-.1.1-.1.1 0 .05-.05.1-.1.15-.05.05-.1.1-.1.15-.1 0-.1.2 0 .2 0 .022.01.06.022.105.042.158.111.417-.122.495 0 .1.2.3.3.3 0 .1.2.4.2.3.045 0 .105-.005.171-.01.229-.02.53-.045.53.11h.3s0 .3-.1.4c0 .1 0 .3.1.3l.1.2c0 .09.06.099.126.109.082.012.173.026.173.191a.358.358 0 0 1-.037.131.65.65 0 0 0-.063.269s0 .4.1.4c0 .041.069.083.15.131.113.069.25.152.25.269l.1.2s.2.4.2.5l.1.2c0 .05.025.1.05.15a.579.579 0 0 1 .043.1Zm1.948-2.118a6.46 6.46 0 0 0 .64-1.553.882.882 0 0 1-.18.221 1.327 1.327 0 0 1-.123.1c-.089.067-.178.133-.178.2l.016-.016-.008.009c-.048.051-.288.307-.208.307 0 .028-.008.08-.017.14-.023.153-.055.36.017.36 0 0 .03.122.041.232Zm.818-2.497c.027-.236.04-.476.041-.72-.102.022-.2.071-.2.185a.844.844 0 0 0-.266.084c.081.131.287.337.366.416 0 0 .02 0 .059.035ZM1.746 6.223a6.502 6.502 0 0 0 3.795 7.796l.06-.119v-.4c0-.05.024-.1.05-.15.024-.05.05-.1.05-.15.116-.058.13-.32.142-.528.008-.15.015-.272.057-.272 0-.093.005-.17.01-.234.015-.213.02-.29-.21-.366l-.2-.2c-.2 0-.3-.4-.3-.4-.1 0-.1-.1-.1-.2l-.3-.4c-.124-.062-.094-.124-.054-.209A.437.437 0 0 0 4.8 10.2c-.1-.1 0-.4.1-.4l.1-.1c.1.1.2-.1.1-.1v-.3c.1-.1 0-.3-.1-.1-.1 0-.4 0-.4-.2 0-.1-.1-.3-.2-.3 0-.1-.3-.3-.4-.3 0-.1-.1-.1-.1-.1.03.03.043.043.041.044l-.016-.007C3.9 8.325 3.85 8.3 3.8 8.3c-.2 0-.4-.1-.4-.1 0-.056-.063-.08-.136-.11-.057-.022-.12-.046-.164-.09-.1 0-.2-.2-.2-.3 0-.2-.1-.4-.2-.4.3.4-.2.1-.2-.1-.1-.1-.2-.3-.2-.4 0-.1-.1-.3-.1-.3 0-.1-.1-.2-.3-.2l-.154-.077Z" clip-rule="evenodd"/>
</svg>
