<svg xmlns="http://www.w3.org/2000/svg" width="16" height="16" fill="currentColor" viewBox="0 0 16 16">
  <path fill-rule="evenodd" d="M1 1v3.5h3.5V1H1Zm2.25 1.25h-1v1h1v-1Zm3-1.25v3.5h3.5V1h-3.5ZM8.5 2.25h-1v1h1v-1Zm3 2.25V1H15v3.5h-3.5Zm1.25-2.25h1v1h-1v-1ZM1 11.5V15h3.5v-3.5H1Zm2.25 1.25h-1v1h1v-1Zm3 2.25v-3.5h3.5V15h-3.5Zm1.25-2.25h1v1h-1v-1Zm4-1.25V15H15v-3.5h-3.5Zm2.25 1.25h-1v1h1v-1ZM1 9.75v-3.5h3.5v3.5H1ZM2.25 7.5h1v1h-1v-1Zm4-1.25v3.5h3.5v-3.5h-3.5ZM8.5 7.5h-1v1h1v-1Zm3 2.25v-3.5H15v3.5h-3.5Zm1.25-2.25h1v1h-1v-1Z" clip-rule="evenodd"/>
</svg>
