<svg xmlns="http://www.w3.org/2000/svg" width="16" height="16" fill="currentColor" viewBox="0 0 16 16">
  <path fill-rule="evenodd" d="M14.943 0 0 14.943 1.057 16 5 12.06V13h6v-1.803A5.998 5.998 0 0 0 14 6a5.98 5.98 0 0 0-.511-2.428L16 1.057 14.943 0Zm-2.622 4.74L8.75 8.31v2.128a4.501 4.501 0 0 0 3.571-5.698ZM7.25 9.81l-.51.511c.166.049.336.088.51.117V9.81Z" clip-rule="evenodd"/>
  <path d="M8 1.5a4.48 4.48 0 0 1 2.537.783l1.074-1.075a6 6 0 0 0-8.403 8.403l1.075-1.074A4.5 4.5 0 0 1 8 1.5ZM11 15v-1H5v1l1 1h4l1-1Z"/>
</svg>
