<svg xmlns="http://www.w3.org/2000/svg" width="16" height="16" fill="currentColor" viewBox="0 0 16 16">
  <path d="M4.455.5 3.167.845l.69 2.577 1.288-.345L4.455.5ZM3.421 3.857l-2.576-.69L.5 4.455l2.576.69.345-1.288Zm9.175 6.618-1.06-1.06 1.06-1.061a3.5 3.5 0 1 0-4.95-4.95l-1.06 1.06-1.06-1.06 1.06-1.06a5 5 0 0 1 7.071 7.07l-1.06 1.06Zm-4.242 2.121 1.06-1.06 1.061 1.06-1.06 1.06a5 5 0 1 1-7.072-7.07l1.061-1.06 1.06 1.06-1.06 1.06a3.5 3.5 0 0 0 4.95 4.95Z"/>
  <path d="m9.945 4.995-4.95 4.95 1.06 1.06 4.95-4.95-1.06-1.06Zm5.355 7.983-2.576-.69L13.07 11l2.576.69-.345 1.288ZM12.979 15.3l-1.288.345-.69-2.577 1.287-.345.69 2.576Z"/>
</svg>
