<svg xmlns="http://www.w3.org/2000/svg" width="16" height="16" fill="currentColor" viewBox="0 0 16 16">
  <path d="m4.98.304.5 2.5-1.96.392-.5-2.5L4.98.304Zm10.891 11.268-2.5-1-.743 1.857 2.5 1 .743-1.857Zm-5.351 1.624.5 2.5 1.96-.392-.5-2.5-1.96.392ZM.128 4.428l2.5 1 .743-1.856-2.5-1-.743 1.856ZM11.182 9.06l1.414 1.415 1.06-1.06a5 5 0 0 0-7.07-7.072l-1.06 1.06 1.413 1.415L8 3.758A3 3 0 0 1 12.243 8l-1.061 1.06ZM9.06 11.182 8 12.242A3 3 0 1 1 3.757 8l1.061-1.06-1.414-1.415-1.06 1.06a5 5 0 1 0 7.07 7.072l1.06-1.06-1.413-1.415Z"/>
  <path d="m9.768 4.818-4.95 4.95 1.414 1.414 4.95-4.95-1.414-1.414Z"/>
</svg>
