<svg xmlns="http://www.w3.org/2000/svg" width="16" height="16" fill="currentColor" viewBox="0 0 16 16">
  <path d="M4.276 2v5.09H2.893V3.274L1.75 3.94V2.766L3.003 2h1.273ZM7 3h7v2H7V3Zm7 4H7v2h7V7Zm0 4H7v2h7v-2ZM1.6 13.006V14h3.907v-1.104H3.518l.478-.427c.388-.323.687-.602.897-.835.21-.234.356-.447.438-.64.08-.193.121-.388.121-.583a1.41 1.41 0 0 0-.246-.828 1.573 1.573 0 0 0-.693-.547c-.299-.131-.651-.197-1.06-.197-.394 0-.737.07-1.03.21a1.564 1.564 0 0 0-.682.596c-.16.258-.241.567-.241.925h1.313a.76.76 0 0 1 .079-.363.535.535 0 0 1 .224-.227.716.716 0 0 1 .338-.077c.127 0 .24.026.338.077a.55.55 0 0 1 .229.214.635.635 0 0 1 .084.336.71.71 0 0 1-.074.325 1.113 1.113 0 0 1-.21.286c-.089.091-.196.19-.322.294l-1.9 1.57Z"/>
</svg>
