<svg xmlns="http://www.w3.org/2000/svg" width="16" height="16" fill="currentColor" viewBox="0 0 16 16">
  <path d="m16 0-2.343 2.343A8 8 0 1 0 4 14.93v-1.806a6.5 6.5 0 1 1 8.596-9.72L9 7h7V0Z"/>
  <path d="M11.826 15.727c.406.182.87.273 1.393.273.557 0 1.043-.103 1.459-.31a2.39 2.39 0 0 0 .972-.863c.233-.367.35-.787.35-1.261 0-.439-.098-.828-.294-1.167a2.082 2.082 0 0 0-.798-.796 2.259 2.259 0 0 0-1.147-.29c-.338 0-.64.063-.906.189-.264.124-.455.28-.574.472l.122-1.629h3.174V9h-4.598l-.311 3.723 1.529.276a.985.985 0 0 1 .42-.367 1.31 1.31 0 0 1 .591-.132c.22 0 .413.047.58.142a1 1 0 0 1 .4.387c.098.167.145.361.143.584a1.13 1.13 0 0 1-.14.58 1.007 1.007 0 0 1-.395.387 1.18 1.18 0 0 1-.577.139 1.15 1.15 0 0 1-.718-.23.798.798 0 0 1-.322-.613H10.5c.01.413.13.78.364 1.099.235.32.556.57.962.752Z"/>
</svg>
