<svg xmlns="http://www.w3.org/2000/svg" width="16" height="16" fill="currentColor" viewBox="0 0 16 16">
  <path d="M7 7 3.404 3.404A6.5 6.5 0 1 1 12 13.124v1.806A8 8 0 1 0 2.343 2.343L0 0v7h7Z"/>
  <path d="M3.365 9v6.906H1.64v-5.348L0 11.502v-1.443L1.763 9h1.602Z"/>
  <path fill-rule="evenodd" d="M5.627 15.582c.426.279.933.418 1.521.418.59 0 1.098-.138 1.521-.415.426-.279.754-.681.985-1.208.23-.527.346-1.161.346-1.903.002-.738-.112-1.366-.343-1.884-.23-.518-.56-.912-.988-1.182C8.243 9.136 7.736 9 7.15 9c-.59 0-1.096.136-1.522.408-.424.27-.75.664-.981 1.182-.228.516-.344 1.144-.346 1.884-.002.74.112 1.373.343 1.9.23.524.558.927.984 1.208Zm2.374-1.452c-.217.358-.502.536-.853.536a.899.899 0 0 1-.616-.237c-.177-.16-.316-.402-.414-.727-.097-.325-.144-.735-.142-1.228.002-.73.11-1.27.326-1.62.215-.354.497-.53.846-.53.235 0 .44.078.616.233.175.156.313.393.411.712.1.316.149.717.149 1.205.002.744-.106 1.296-.323 1.656Z" clip-rule="evenodd"/>
</svg>
