<svg xmlns="http://www.w3.org/2000/svg" width="16" height="16" fill="currentColor" viewBox="0 0 16 16">
  <path d="M2.343 2.343A8 8 0 1 1 12 14.93v-1.806a6.5 6.5 0 1 0-8.596-9.72L7 7H0V0l2.343 2.343Z"/>
  <path d="M2.719 16c-.523 0-.987-.091-1.393-.273a2.373 2.373 0 0 1-.962-.752 1.89 1.89 0 0 1-.364-1.1h1.68a.798.798 0 0 0 .32.615c.2.153.44.23.718.23.216 0 .409-.046.577-.139a1 1 0 0 0 .395-.387 1.13 1.13 0 0 0 .14-.58 1.105 1.105 0 0 0-.143-.584 1 1 0 0 0-.4-.387 1.165 1.165 0 0 0-.58-.142 1.312 1.312 0 0 0-.591.132.985.985 0 0 0-.42.367l-1.53-.277L.48 9h4.598v1.345H1.903l-.122 1.629c.119-.191.31-.348.574-.472.266-.126.568-.189.906-.189.429 0 .812.097 1.147.29.339.191.605.456.798.796.196.34.294.728.294 1.167 0 .474-.117.894-.35 1.26-.23.367-.555.655-.973.864-.415.207-.901.31-1.458.31Z"/>
</svg>
