<svg xmlns="http://www.w3.org/2000/svg" width="16" height="16" fill="currentColor" viewBox="0 0 16 16">
  <path d="M12.596 3.404A6.5 6.5 0 1 0 4 13.124v1.806a8 8 0 1 1 9.657-12.587L16 0v7H9l3.596-3.596Z"/>
  <path d="M9.364 9v6.906H7.64v-5.348L6 11.502v-1.443L7.763 9h1.601Zm3.861 7a3.36 3.36 0 0 1-1.389-.273 2.367 2.367 0 0 1-.96-.752 1.893 1.893 0 0 1-.362-1.1h1.675c.014.255.12.46.32.614.201.153.44.23.716.23.217 0 .409-.046.576-.139a1 1 0 0 0 .395-.387 1.14 1.14 0 0 0 .14-.58 1.107 1.107 0 0 0-.144-.584.998.998 0 0 0-.398-.387 1.16 1.16 0 0 0-.58-.142 1.306 1.306 0 0 0-.589.132.984.984 0 0 0-.419.367l-1.525-.277.31-3.722h4.587v1.345h-3.166l-.122 1.629c.119-.191.31-.348.572-.472.266-.126.567-.189.904-.189.428 0 .81.097 1.145.29.338.191.603.456.796.796.195.34.293.728.293 1.167 0 .474-.116.894-.349 1.26-.23.367-.554.655-.97.864-.414.207-.9.31-1.456.31Z"/>
</svg>
