<svg xmlns="http://www.w3.org/2000/svg" width="16" height="16" fill="currentColor" viewBox="0 0 16 16">
  <path d="M2.343 2.343A8 8 0 1 1 12 14.93v-1.806a6.5 6.5 0 1 0-8.596-9.72L7 7H0V0l2.343 2.343Z"/>
  <path d="M3.365 9v6.906H1.64v-5.348L0 11.502v-1.443L1.763 9h1.602Zm3.86 7a3.36 3.36 0 0 1-1.389-.273 2.367 2.367 0 0 1-.96-.752 1.893 1.893 0 0 1-.363-1.1H6.19a.798.798 0 0 0 .32.614c.2.153.44.23.716.23.217 0 .409-.046.576-.139a1 1 0 0 0 .395-.387 1.14 1.14 0 0 0 .14-.58 1.107 1.107 0 0 0-.144-.584.999.999 0 0 0-.398-.387 1.16 1.16 0 0 0-.58-.142 1.305 1.305 0 0 0-.589.132.983.983 0 0 0-.419.367l-1.525-.277L4.991 9h4.587v1.345H6.412l-.122 1.629c.119-.191.31-.348.572-.472.266-.126.567-.189.904-.189.428 0 .81.097 1.145.29.337.191.603.456.796.796.195.34.293.728.293 1.167 0 .474-.116.894-.349 1.26-.23.367-.554.655-.97.864-.414.207-.9.31-1.456.31Z"/>
</svg>
