<svg xmlns="http://www.w3.org/2000/svg" width="16" height="16" fill="currentColor" viewBox="0 0 16 16">
  <path d="M13.891 5.25A6.5 6.5 0 1 0 4 13.124v1.806A8 8 0 1 1 14.5 3.336V0H16v6.75H9.25v-1.5h4.641Z"/>
  <path d="M9.364 9v6.906H7.64v-5.348L6 11.502v-1.443L7.763 9h1.601Z"/>
  <path fill-rule="evenodd" d="M11.627 15.582c.426.279.933.418 1.521.418.59 0 1.098-.138 1.521-.415.426-.279.754-.681.985-1.208.23-.527.345-1.161.345-1.903.003-.738-.111-1.366-.342-1.884-.23-.518-.56-.912-.988-1.182-.426-.272-.933-.408-1.52-.408-.59 0-1.096.136-1.522.408-.424.27-.75.664-.981 1.182-.229.516-.344 1.144-.346 1.884-.002.74.112 1.373.342 1.9.231.524.56.927.985 1.208Zm2.374-1.452c-.217.358-.502.536-.853.536a.9.9 0 0 1-.616-.237c-.177-.16-.316-.402-.414-.727-.097-.325-.144-.735-.142-1.228.002-.73.11-1.27.326-1.62.215-.354.497-.53.846-.53.235 0 .44.078.616.233.176.156.313.393.411.712.1.316.149.717.149 1.205.002.744-.106 1.296-.323 1.656Z" clip-rule="evenodd"/>
</svg>
