<svg xmlns="http://www.w3.org/2000/svg" width="16" height="16" fill="currentColor" viewBox="0 0 16 16">
  <path d="M6.75 5.25v1.5H0V0h1.5v3.335A8 8 0 1 1 12 14.93v-1.805A6.5 6.5 0 1 0 2.109 5.25H6.75Z"/>
  <path d="M3.365 15.906V9H1.762L0 10.059v1.443l1.64-.944v5.348h1.725Zm2.471-.179c.405.182.868.273 1.39.273.555 0 1.04-.103 1.455-.31.416-.21.74-.497.97-.863A2.3 2.3 0 0 0 10 13.566c0-.439-.098-.828-.293-1.167a2.079 2.079 0 0 0-.796-.796 2.249 2.249 0 0 0-1.145-.29c-.337 0-.638.063-.904.189-.263.124-.453.28-.572.472l.122-1.629h3.166V9H4.992l-.311 3.723 1.525.276a.983.983 0 0 1 .419-.367c.186-.09.383-.134.59-.132.219 0 .412.047.58.142.17.092.302.221.397.387a1.1 1.1 0 0 1 .143.584 1.12 1.12 0 0 1-.14.58 1.005 1.005 0 0 1-.394.387c-.167.093-.36.139-.576.139-.277 0-.515-.077-.715-.23a.798.798 0 0 1-.321-.613H4.513c.01.413.13.78.363 1.099.235.32.555.57.96.752Z"/>
</svg>
