<svg xmlns="http://www.w3.org/2000/svg" width="16" height="16" fill="currentColor" viewBox="0 0 16 16">
  <path d="M6.75 5.25v1.5H0V0h1.5v3.335A8 8 0 1 1 12 14.93v-1.805A6.5 6.5 0 1 0 2.109 5.25H6.75Z"/>
  <path d="M1.326 15.727c.406.182.87.273 1.393.273.557 0 1.043-.103 1.458-.31.418-.21.742-.497.973-.863.233-.367.35-.787.35-1.261 0-.439-.098-.828-.294-1.167a2.082 2.082 0 0 0-.798-.796 2.259 2.259 0 0 0-1.147-.29c-.338 0-.64.063-.906.189-.264.124-.455.28-.574.472l.122-1.629h3.174V9H.479l-.311 3.723 1.529.276a.985.985 0 0 1 .42-.367 1.31 1.31 0 0 1 .591-.132c.22 0 .413.047.58.142a1 1 0 0 1 .4.387c.098.167.145.361.143.584a1.13 1.13 0 0 1-.14.58 1.006 1.006 0 0 1-.395.387 1.18 1.18 0 0 1-.577.139 1.15 1.15 0 0 1-.718-.23.798.798 0 0 1-.322-.613H0c.01.413.13.78.364 1.099.235.32.556.57.962.752Z"/>
</svg>
