<svg xmlns="http://www.w3.org/2000/svg" width="16" height="16" fill="currentColor" viewBox="0 0 16 16">
  <path fill-rule="evenodd" d="M14.52 12.4a6.379 6.379 0 0 1-1.15.104c-3.333-.006-6.16-2.712-6.16-6.304A6.171 6.171 0 0 1 10.314.8c.3-.2.2-.6-.1-.7-.4-.1-.901-.1-1.402-.1C4.506 0 1 3.6 1 8s3.505 8 7.812 8a7.67 7.67 0 0 0 5.393-2.205 8.17 8.17 0 0 0 .716-.795c.2-.3 0-.7-.4-.6ZM7.107 1.743C4.471 2.511 2.5 5.011 2.5 8c0 3.607 2.868 6.5 6.312 6.5a6.14 6.14 0 0 0 2.846-.692C8.296 13.027 5.71 10 5.71 6.2a7.71 7.71 0 0 1 1.396-4.457Z" clip-rule="evenodd"/>
</svg>
