<svg xmlns="http://www.w3.org/2000/svg" width="16" height="16" fill="currentColor" viewBox="0 0 16 16">
  <path fill-rule="evenodd" d="M13.5 4.786 6 6.214v7.036c0 1.243-1.343 2.25-3 2.25s-3-1.007-3-2.25S1.343 11 3 11c.546 0 1.059.11 1.5.301V2L15 0v7.25h-1.5V4.786Zm0-1.527L6 4.687V3.241l7.5-1.428v1.446ZM4.221 13.64c.26-.194.279-.348.279-.391 0-.043-.02-.197-.279-.391S3.535 12.5 3 12.5s-.962.165-1.221.359c-.26.194-.279.348-.279.391 0 .043.02.197.279.391S2.465 14 3 14s.962-.165 1.221-.359Z" clip-rule="evenodd"/>
  <path d="M12.94 12.75H8v-1.5h4.94l-1.72-1.72 1.06-1.06L15.81 12l-3.53 3.53-1.06-1.06 1.72-1.72Z"/>
</svg>
