<svg xmlns="http://www.w3.org/2000/svg" width="16" height="16" fill="currentColor" viewBox="0 0 16 16">
  <path fill-rule="evenodd" d="M14.5 4.76 6 6.24v7.51C6 14.993 4.657 16 3 16s-3-1.007-3-2.25 1.343-2.25 3-2.25c.546 0 1.059.11 1.5.301V2L16 0v11.25c0 1.243-1.343 2.25-3 2.25s-3-1.007-3-2.25S11.343 9 13 9c.546 0 1.059.11 1.5.301v-4.54Zm0-1.522L6 4.717V3.262l8.5-1.479v1.455Zm-.279 7.621c.26.194.279.348.279.391 0 .043-.02.197-.279.391S13.535 12 13 12s-.962-.165-1.221-.359c-.26-.194-.279-.348-.279-.391 0-.043.02-.197.279-.391S12.465 10.5 13 10.5s.962.165 1.221.359ZM4.5 13.75c0 .043-.02.197-.279.391S3.535 14.5 3 14.5s-.962-.165-1.221-.359c-.26-.194-.279-.348-.279-.391 0-.043.02-.197.279-.391S2.465 13 3 13s.962.165 1.221.359c.26.194.279.348.279.391Z" clip-rule="evenodd"/>
</svg>
