<svg xmlns="http://www.w3.org/2000/svg" width="16" height="16" fill="currentColor" viewBox="0 0 16 16">
  <path fill-rule="evenodd" d="m14.5 4.773-8 1.454V7H5V2l11-2v11.25c0 1.243-1.343 2.25-3 2.25s-3-1.007-3-2.25S11.343 9 13 9c.546 0 1.059.11 1.5.301V4.773Zm0-1.525-8 1.455V3.252l8-1.455v1.451Zm0 8.002c0-.043-.02-.197-.279-.391S13.535 10.5 13 10.5s-.962.165-1.221.359c-.26.194-.279.348-.279.391 0 .043.02.197.279.391S12.465 12 13 12s.962-.165 1.221-.359c.26-.194.279-.348.279-.391Z" clip-rule="evenodd"/>
  <path d="M5.19 12.75H0v-1.5h5.19L3.47 9.53l1.06-1.06L8.06 12l-3.53 3.53-1.06-1.06 1.72-1.72Z"/>
</svg>
