<svg xmlns="http://www.w3.org/2000/svg" width="16" height="16" fill="currentColor" viewBox="0 0 16 16">
  <path d="M5 1.5a1.5 1.5 0 1 1-3 0 1.5 1.5 0 0 1 3 0Zm9 0a1.5 1.5 0 1 1-3 0 1.5 1.5 0 0 1 3 0ZM8 3a1.5 1.5 0 1 0 0-3 1.5 1.5 0 0 0 0 3ZM5 5.8a1.5 1.5 0 1 1-3 0 1.5 1.5 0 0 1 3 0Zm7.5 1.5a1.5 1.5 0 1 0 0-3 1.5 1.5 0 0 0 0 3Zm-3-1.5a1.5 1.5 0 1 1-3 0 1.5 1.5 0 0 1 3 0Zm-6 5.9a1.5 1.5 0 1 0 0-3 1.5 1.5 0 0 0 0 3ZM14 10.2a1.5 1.5 0 1 1-3 0 1.5 1.5 0 0 1 3 0Zm-6 1.5a1.5 1.5 0 1 0 0-3 1.5 1.5 0 0 0 0 3Zm1.5 2.8a1.5 1.5 0 1 1-3 0 1.5 1.5 0 0 1 3 0Z"/>
</svg>
