<svg xmlns="http://www.w3.org/2000/svg" width="16" height="16" fill="currentColor" viewBox="0 0 16 16">
  <path fill-rule="evenodd" d="M10.375 16v-2.4h2.12c.907 0 1.642-.716 1.642-1.6V9.657l1.609-.672c.282-.117.306-.396.185-.582l-1.848-2.831C13.666 2.429 10.908 0 7.569 0 3.94 0 1 2.865 1 6.4c0 1.514.54 2.905 1.441 4 .664.807 1.022 1.7 1.022 2.645V16h6.912Zm2.22-10.23.046.337 1.307 2.003-1.31.547V12c0 .015-.005.034-.028.057a.16.16 0 0 1-.115.043H8.876v2.4H4.963v-1.455c0-1.35-.518-2.57-1.363-3.597A4.772 4.772 0 0 1 2.5 6.4c0-1.782.995-3.369 2.5-4.226V4.5a2.5 2.5 0 0 0 2.558 4.266l2.088 2.088a.5.5 0 0 0 .708-.708L8.368 8.161A2.5 2.5 0 0 0 7 4.05V1.53c.186-.02.376-.03.569-.03 2.607 0 4.711 1.891 5.027 4.27Z" clip-rule="evenodd"/>
</svg>
