<svg xmlns="http://www.w3.org/2000/svg" width="16" height="16" fill="currentColor" viewBox="0 0 16 16">
  <path fill-rule="evenodd" d="M7.25 12.25V9.5H9c.611 0 1.303-.151 1.855-.611.576-.48.895-1.209.895-2.139 0-.93-.319-1.659-.895-2.139C10.303 4.151 9.611 4 9 4H5.75v8.25h1.5ZM9 8H7.25V5.5H9c.389 0 .697.099.895.264.174.145.355.416.355.986 0 .57-.181.841-.355.986C9.697 7.901 9.389 8 9 8Z" clip-rule="evenodd"/>
  <path fill-rule="evenodd" d="M16 8A8 8 0 1 1 0 8a8 8 0 0 1 16 0Zm-1.5 0a6.5 6.5 0 1 1-13 0 6.5 6.5 0 0 1 13 0Z" clip-rule="evenodd"/>
</svg>
