<svg xmlns="http://www.w3.org/2000/svg" width="16" height="16" fill="currentColor" viewBox="0 0 16 16">
  <path d="M12.24 9.88s.128.063.192.128c.065.064.194 1.095-.257 1.546-1.353 1.288-2.705 1.674-5.99-1.546l-.193-.193c-3.22-3.285-2.834-4.702-1.546-5.99.451-.45 1.482-.322 1.546-.257.065 0 .129.193.129.193l.708 2.06-.901 1.16c-.13.129.129.966 1.03 1.803l.193.193c.773.838 1.74 1.03 1.804.966l1.288-.772 1.996.708ZM0 0v5h1.5V1.5H5V0H0Zm11 0v1.5h3.5V5H16V0h-5Zm0 14.5V16h5v-5h-1.5v3.5H11ZM0 16v-5h1.5v3.5H5V16H0Z"/>
</svg>
