<svg xmlns="http://www.w3.org/2000/svg" width="16" height="16" fill="currentColor" viewBox="0 0 16 16">
  <path fill-rule="evenodd" d="M6.647 2.895a.91.91 0 0 1 .483.46l.043.097 1.442 2.35-1.048 1.287c.18.422.92 1.249 1.363 1.3l1.301-1.004 2.39 1.518c.02.011.05.027.081.046.05.03.163.1.263.2a.783.783 0 0 1 .19.31c.018.051.03.1.037.135a2.4 2.4 0 0 1 .037.237c.018.164.027.372.017.593a3.24 3.24 0 0 1-.108.723c-.08.288-.22.576-.439.785-.684.654-1.576 1.37-2.835 1.315-1.219-.053-2.557-.817-4.2-2.434l-.483-.486C3.566 8.674 2.807 7.316 2.753 6.09c-.056-1.27.652-2.165 1.319-2.834.249-.25.563-.367.81-.426a3.25 3.25 0 0 1 .747-.08c.229 0 .443.019.611.044.083.012.165.027.238.045a1.24 1.24 0 0 1 .169.056Zm5.1 7.23-1.432-.91-.528.408a.982.982 0 0 1-.18.118 1.299 1.299 0 0 1-.224.088 1.564 1.564 0 0 1-.59.054c-.818-.078-1.354-.71-1.895-1.255-.507-.475-.792-.954-.84-1.44a1.308 1.308 0 0 1 .324-1.02l.398-.489-.868-1.415a2.87 2.87 0 0 0-.283-.014c-.153 0-.291.013-.397.039a.467.467 0 0 0-.108.036c-.59.593-.9 1.09-.872 1.699.029.658.459 1.674 2 3.252l.467.47c1.576 1.55 2.57 1.975 3.21 2.002.594.026 1.083-.281 1.717-.884a.493.493 0 0 0 .048-.122c.029-.104.047-.237.054-.383a2.683 2.683 0 0 0 0-.234Z" clip-rule="evenodd"/>
  <path d="M0 5V0h5v1.5H1.5V5H0Zm11-5v1.5h3.5V5H16V0h-5Zm0 14.5V16h5v-5h-1.5v3.5H11ZM0 16v-5h1.5v3.5H5V16H0Z"/>
</svg>
