<svg xmlns="http://www.w3.org/2000/svg" width="16" height="16" fill="currentColor" viewBox="0 0 16 16">
  <path fill-rule="evenodd" d="M1.864 10.562s-.2.067-.333.067S-.001 9.498 0 8.564c.07-2.733.767-5.09 7.5-5.163h1c6.733.059 7.503 2.479 7.5 5.145-.001.934-1.536 2.069-1.67 2.069-.066.067-.332-.066-.332-.066l-3.322-.786L10.5 8c0-.267-.2-1.069-2-1h-1c-1.667-.065-2 .867-2 1l-.236 1.794-3.4.768Zm2.049-2L1.9 9.016a3.448 3.448 0 0 1-.08-.083 1.817 1.817 0 0 1-.317-.436c.04-1.24.236-1.924.762-2.406.6-.551 1.976-1.153 5.243-1.19h.985c3.26.029 4.659.641 5.27 1.201.531.486.728 1.17.737 2.341-.088.16-.218.299-.346.427-.049.05-.098.096-.147.14l-1.945-.46-.064-.65a2.327 2.327 0 0 0-.872-1.686c-.662-.542-1.571-.75-2.653-.714h-.946c-1.114-.037-1.986.255-2.608.77-.302.25-.515.528-.658.79a2.32 2.32 0 0 0-.17.392 1.846 1.846 0 0 0-.083.389l-.095.72Z" clip-rule="evenodd"/>
</svg>
