<svg xmlns="http://www.w3.org/2000/svg" width="16" height="16" fill="currentColor" viewBox="0 0 16 16">
  <path fill-rule="evenodd" d="m0 15 1 1 4.322-4.322c4.914 4.773 7.138 3.549 9.182 1.595.688-.69.491-2.563.393-2.661-.098-.099-.295-.197-.295-.197l-3.066-1.948L10.04 9.62c-.094.095-.956.507-2.067-.594L16 1l-1-1L0 15Zm6.383-4.383c2.351 2.28 3.78 2.844 4.631 2.881.768.033 1.433-.345 2.385-1.244a.814.814 0 0 0 .026-.078c.036-.13.062-.31.071-.52.003-.056.004-.112.004-.164l-1.88-1.195-.633.488a1.863 1.863 0 0 1-.337.22c-.124.063-.26.117-.404.16a2.767 2.767 0 0 1-1.045.096c-.765-.073-1.55-.443-2.288-1.174l-.53.53Z" clip-rule="evenodd"/>
  <path d="M4.647 6.77c.037.368.148.726.327 1.075l1.172-1.171c-.057-.4.113-.652.215-.755L7.53 4.485 5.663 1.444s-.098-.296-.196-.296c-.099-.099-2.063-.394-2.751.296C.925 3.24-.243 5.362 3.287 9.533l1.065-1.065c-1.42-1.7-1.818-2.829-1.85-3.557-.035-.789.347-1.462 1.213-2.344a.83.83 0 0 1 .057-.016c.13-.031.318-.051.54-.051.084 0 .167.003.244.007l1.139 1.855-.465.571c-.325.36-.667.99-.583 1.837Z"/>
</svg>
