<svg xmlns="http://www.w3.org/2000/svg" width="16" height="16" fill="currentColor" viewBox="0 0 16 16">
  <path d="m14.94 7.001-2.44-2.44L10.06 7 8.999 5.94l2.44-2.44-2.44-2.442L10.059 0l2.44 2.44L14.94 0 16 1.059 13.56 3.5 16 5.94l-1.06 1.061Zm-1.346 4.922s.2.1.3.2c.101.1.301 1.704-.4 2.405-2.104 2.003-4.208 2.604-9.317-2.405l-.3-.3c-5.01-5.11-4.408-7.313-2.405-9.317.702-.701 2.304-.501 2.405-.4.1 0 .2.3.2.3l1.102 3.206-1.403 1.803c-.2.2.2 1.503 1.603 2.805l.3.3c1.203 1.303 2.706 1.603 2.806 1.503l2.004-1.202 3.105 1.102Z"/>
</svg>
