<svg xmlns="http://www.w3.org/2000/svg" width="16" height="16" fill="currentColor" viewBox="0 0 16 16">
  <path fill-rule="evenodd" d="M1.53 8.229c.134 0 .334-.067.334-.067l3.4-.768.236-1.795c0-.133.333-1.064 2-1h1c1.8-.068 2 .734 2 1l.175 1.763 3.323.786s.266.133.333.066c.133 0 1.668-1.135 1.669-2.068.003-2.667-.767-5.087-7.5-5.146h-1C.767 1.074.07 3.43 0 6.164c-.001.933 1.398 2.065 1.53 2.065Zm.37-1.613 2.013-.455.095-.721c.017-.174.059-.313.083-.388.043-.13.1-.263.17-.393.143-.261.356-.54.658-.79.622-.514 1.494-.807 2.608-.77h.946c1.082-.037 1.991.172 2.653.714a2.33 2.33 0 0 1 .872 1.687l.064.649 1.945.46c.049-.044.098-.09.147-.14.128-.128.258-.267.346-.426-.01-1.172-.206-1.856-.736-2.341-.612-.56-2.011-1.173-5.27-1.202h-.986c-3.267.037-4.642.64-5.243 1.19-.526.482-.721 1.167-.762 2.407.076.162.198.305.318.436l.079.083Z" clip-rule="evenodd"/>
  <path d="M8.002 16 13 11.05l-1.071-1.06-3.213 3.182V7H7.287v6.172L4.071 9.987 3 11.047 8.002 16Z"/>
</svg>
