<svg xmlns="http://www.w3.org/2000/svg" width="16" height="16" fill="currentColor" viewBox="0 0 16 16">
  <path fill-rule="evenodd" d="M5.467 1.148c.098 0 .196.296.196.296l1.866 3.04L6.361 5.92c-.196.197-.639.94.736 2.22l.736.74c1.18 1.283 2.11.84 2.208.741l1.495-1.153 3.066 1.948s.197.098.295.197c.098.098.295 1.971-.393 2.661-2.063 1.972-4.31 3.2-9.32-1.729l-.735-.74C-.463 5.776.75 3.415 2.716 1.444c.688-.69 2.652-.395 2.75-.296Zm.775 9.333c2.436 2.394 3.905 2.98 4.772 3.017.768.033 1.433-.345 2.385-1.244a.814.814 0 0 0 .026-.078c.036-.13.062-.31.071-.52.003-.056.004-.112.004-.164l-1.88-1.195-.633.488a1.863 1.863 0 0 1-.337.22c-.124.063-.26.117-.404.16a2.767 2.767 0 0 1-1.045.096c-.822-.078-1.667-.5-2.45-1.343l-.698-.702c-.818-.768-1.32-1.58-1.406-2.446a2.369 2.369 0 0 1 .583-1.837l.465-.57-1.139-1.856a4.068 4.068 0 0 0-.244-.007c-.222 0-.41.02-.54.051a.83.83 0 0 0-.057.016c-.866.882-1.248 1.555-1.213 2.344.04.898.635 2.403 3.015 4.84l.725.73Z" clip-rule="evenodd"/>
</svg>
