<svg xmlns="http://www.w3.org/2000/svg" width="16" height="16" fill="currentColor" viewBox="0 0 16 16">
  <path d="m10.526 6.585 5.472-5.53L14.932 0l-4.423 4.47-2.02-1.978-1.05 1.071 3.087 3.022Z"/>
  <path fill-rule="evenodd" d="M4.467 2.148c.098 0 .196.296.196.296l1.866 3.04L5.361 6.92C5.165 7.116 5 8 6.097 9.14l.736.74c1.167 1.12 2.11.84 2.208.74l1.495-1.153 3.066 1.948s.197.098.295.197c.098.098.295 1.971-.393 2.661-2.063 1.972-4.31 3.2-9.32-1.729l-.735-.74C-1.463 6.776-.25 4.415 1.716 2.444c.688-.69 2.652-.395 2.75-.296Zm.05 8.603.725.73c2.436 2.394 3.905 2.98 4.772 3.017.768.033 1.433-.345 2.385-1.244a.814.814 0 0 0 .026-.078c.036-.13.062-.31.071-.52.003-.056.004-.112.004-.164l-1.88-1.195-.639.492c-.196.16-.386.238-.46.267a2.368 2.368 0 0 1-.424.122 2.969 2.969 0 0 1-.975.013c-.738-.107-1.545-.478-2.328-1.23l-.777-.78c-.708-.736-1.113-1.498-1.248-2.234a2.79 2.79 0 0 1 0-1.055c.055-.273.18-.638.456-.952l.47-.578-1.14-1.855a4.067 4.067 0 0 0-.243-.007c-.222 0-.41.02-.54.051a.83.83 0 0 0-.057.016c-.866.882-1.248 1.555-1.213 2.344.04.898.635 2.403 3.015 4.84Z" clip-rule="evenodd"/>
</svg>
