<svg xmlns="http://www.w3.org/2000/svg" width="16" height="16" fill="currentColor" viewBox="0 0 16 16">
  <path fill-rule="evenodd" d="M8 9.5A3.51 3.51 0 0 1 4.5 6 3.51 3.51 0 0 1 8 2.5 3.51 3.51 0 0 1 11.5 6 3.51 3.51 0 0 1 8 9.5ZM6 6c0 1.097.903 2 2 2s2-.903 2-2-.903-2-2-2-2 .903-2 2Z" clip-rule="evenodd"/>
  <path fill-rule="evenodd" d="M2 6c0-3.3 2.7-6 6-6s6 2.7 6 6-5 10-6 10S2 9.3 2 6Zm1.5 0c0-2.472 2.028-4.5 4.5-4.5s4.5 2.028 4.5 4.5c0 .507-.21 1.312-.668 2.347-.443.997-1.054 2.07-1.71 3.065-.655.996-1.33 1.875-1.88 2.488a9.996 9.996 0 0 1-.242.262 9.996 9.996 0 0 1-.243-.262c-.55-.613-1.224-1.492-1.88-2.488-.655-.994-1.267-2.068-1.709-3.065C3.71 7.312 3.5 6.507 3.5 6Z" clip-rule="evenodd"/>
</svg>
