<svg xmlns="http://www.w3.org/2000/svg" width="16" height="16" fill="currentColor" viewBox="0 0 16 16">
  <path fill-rule="evenodd" d="M8.75 3v-.25a2.75 2.75 0 0 0-5.5 0V3H0v4.75h.75a1.25 1.25 0 1 1 0 2.5H0V16h4.75v-1a1.25 1.25 0 1 1 2.5 0v1H13v-4.25h.25a2.75 2.75 0 1 0 0-5.5H13V3H8.75ZM6 1.5c-.69 0-1.25.56-1.25 1.25V4.5H1.5v1.854a2.751 2.751 0 0 1 0 5.292V14.5h1.795a2.75 2.75 0 0 1 5.41 0H11.5v-4.25h1.75a1.25 1.25 0 1 0 0-2.5H11.5V4.5H7.25V2.75c0-.69-.56-1.25-1.25-1.25Z" clip-rule="evenodd"/>
</svg>
