<svg xmlns="http://www.w3.org/2000/svg" width="16" height="16" fill="currentColor" viewBox="0 0 16 16">
  <path d="M8.25 4.75c-1.013 0-1.75.758-1.75 1.594H5C5 4.59 6.501 3.25 8.25 3.25s3.25 1.34 3.25 3.094c0 .696-.248 1.421-.76 1.979-.477.519-1.154.86-1.986.918a5.895 5.895 0 0 0-.004.259v.5h-1.5c0-.464-.046-.962.1-1.409.06-.182.17-.406.388-.583.227-.184.497-.258.762-.258.551 0 .91-.197 1.135-.442A1.43 1.43 0 0 0 10 6.344c0-.836-.737-1.594-1.75-1.594ZM8 11a1 1 0 1 0 0 2 1 1 0 0 0 0-2Z"/>
  <path fill-rule="evenodd" d="M8 16A8 8 0 1 0 8 0a8 8 0 0 0 0 16Zm0-1.5a6.5 6.5 0 1 0 0-13 6.5 6.5 0 0 0 0 13Z" clip-rule="evenodd"/>
</svg>
