<svg xmlns="http://www.w3.org/2000/svg" width="16" height="16" fill="currentColor" viewBox="0 0 16 16">
  <path d="M4.813 14.028c-.785.785-3.833 2.56-4.617 1.776-.785-.784.99-3.832 1.775-4.617a2.01 2.01 0 0 1 2.842 2.841Zm3.551-1.42 1.776 3.196c.891-.89 2.432-3.061 1.9-4.971-2.065 1.238-3.676 1.775-3.676 1.775ZM3.392 7.636.196 5.86c.89-.891 3.061-2.432 4.971-1.9C3.93 6.024 3.392 7.635 3.392 7.635Z"/>
  <path fill-rule="evenodd" d="M15.822.178s-4.972-.71-6.393.71C5.878 4.439 4.457 8.7 4.457 8.7l2.841 2.841s4.262-1.42 7.814-4.972c1.42-1.42.71-6.392.71-6.392ZM10.85 5.15a1.507 1.507 0 1 0 2.131-2.131 1.507 1.507 0 0 0-2.13 2.13Z" clip-rule="evenodd"/>
</svg>
