<svg xmlns="http://www.w3.org/2000/svg" width="16" height="16" fill="currentColor" viewBox="0 0 16 16">
  <path d="M10.85 5.15a1.507 1.507 0 1 0 2.131-2.131 1.507 1.507 0 0 0-2.13 2.13Z"/>
  <path fill-rule="evenodd" d="M15.111 6.57a20.533 20.533 0 0 1-2.521 2.135l.08-.04c.72 1.437.561 2.796.096 3.901-.455 1.082-1.21 1.938-1.736 2.464l-.703.703-2.45-4.41c-.368.149-.579.22-.579.22L4.457 8.7s.059-.176.182-.485L.335 6.303.9 5.55c.456-.607 1.34-1.368 2.448-1.82 1.062-.432 2.382-.6 3.733-.019A20.77 20.77 0 0 1 9.429.888c1.42-1.42 6.393-.71 6.393-.71s.71 4.972-.71 6.392ZM10.49 1.95c.036-.037.254-.185.832-.3.53-.107 1.176-.149 1.836-.149.463 0 .91.02 1.294.048.027.384.047.83.047 1.293 0 .66-.042 1.306-.148 1.837-.116.578-.264.795-.3.832-1.64 1.64-3.458 2.8-4.88 3.553-.592.313-1.109.552-1.507.724L6.213 8.335c.171-.398.41-.915.724-1.507.752-1.421 1.913-3.24 3.553-4.88Zm-1.24 8.757a23.714 23.714 0 0 0 2.157-1.204c.392.899.292 1.733-.023 2.482-.191.454-.46.869-.741 1.23l-1.393-2.51Zm-3-5.71c-.819-.276-1.62-.168-2.334.123a4.815 4.815 0 0 0-1.107.64l2.439 1.084c.262-.54.595-1.17 1.002-1.847Z" clip-rule="evenodd"/>
  <path fill-rule="evenodd" d="M.217 15.783c.872.871 4.258-1.101 5.13-1.973a2.232 2.232 0 1 0-3.157-3.156c-.872.871-2.844 4.257-1.973 5.129Zm1.934-1.694c.975-.452 1.868-1.074 2.135-1.34a.732.732 0 0 0-1.035-1.035c-.266.266-.888 1.16-1.34 2.135-.069.149-.13.29-.18.42.13-.05.271-.111.42-.18Z" clip-rule="evenodd"/>
</svg>
