<svg xmlns="http://www.w3.org/2000/svg" width="16" height="16" fill="currentColor" viewBox="0 0 16 16">
  <path fill-rule="evenodd" d="m8.204 15 .001-2.1H9.58c.756 0 1.369-.627 1.369-1.4V9.45l1.34-.588c.235-.103.256-.346.154-.51l-1.54-2.477C10.555 3.125 8.257 1 5.474 1 2.45 1 0 3.507 0 6.6c0 1.325.45 2.542 1.201 3.5.553.706.852 1.488.852 2.314V15h6.151Zm1.21-8.937.041.326L10.47 8.02l-1.022.448V11.4H6.706l-.001 2.1H3.553v-1.086c0-1.21-.443-2.31-1.171-3.239A4.157 4.157 0 0 1 1.5 6.6c0-2.297 1.811-4.1 3.974-4.1 1.991 0 3.683 1.527 3.94 3.563Z" clip-rule="evenodd"/>
  <path d="m13.265 13.35 1.144.98C15.366 13.011 16 11.39 16 9.635c0-1.955-.77-3.746-1.934-5.135L13 5.566c.895 1.114 1.5 2.529 1.5 4.069 0 1.381-.5 2.662-1.235 3.715Z"/>
</svg>
