<svg xmlns="http://www.w3.org/2000/svg" width="16" height="16" fill="currentColor" viewBox="0 0 16 16">
  <path d="M10 8a2 2 0 1 1-4 0 2 2 0 0 1 4 0Z"/>
  <path fill-rule="evenodd" d="m12.71 6.025 2.978 1.481c.397.198.397.79.1.988l-2.98 1.481.994 3.062c.1.395-.298.79-.695.691l-3.078-.987-1.49 2.963c-.198.395-.794.395-.993 0l-1.49-2.963-3.077.987c-.397.1-.795-.296-.695-.691l.993-3.062-2.98-1.481c-.396-.198-.396-.79 0-.988l2.98-1.481-.993-3.062c-.1-.395.298-.79.695-.593l3.078.988L7.447.296c.199-.395.794-.395.993 0L9.93 3.26l3.077-.987c.398-.1.795.296.696.691l-.993 3.062ZM11.5 8a3.5 3.5 0 1 1-7 0 3.5 3.5 0 0 1 7 0Z" clip-rule="evenodd"/>
</svg>
