<svg xmlns="http://www.w3.org/2000/svg" width="16" height="16" fill="currentColor" viewBox="0 0 16 16">
  <path d="M10 8a2 2 0 1 1-4 0 2 2 0 0 1 4 0Z"/>
  <path fill-rule="evenodd" d="m12.71 6.025.992-3.062c.1-.395-.297-.79-.695-.691l-3.078.987L8.44.296c-.198-.395-.793-.395-.992 0l-1.39 3.062L2.98 2.37c-.397-.197-.795.198-.695.593l.993 3.062-2.98 1.481c-.396.198-.396.79 0 .988l2.98 1.481-.993 3.062c-.1.395.298.79.695.691l3.078-.987 1.49 2.963c.198.395.794.395.992 0l1.49-2.963 3.078.987c.397.1.794-.296.695-.691l-.993-3.062 2.979-1.481c.297-.198.297-.79-.1-.988L12.71 6.025Zm-1.826.767 2.479 1.233-2.38 1.183.82 2.527-2.538-.815-1.222 2.431-1.222-2.43-2.538.814.82-2.527L2.672 8l2.43-1.208-.784-2.416 2.551.818 1.117-2.459 1.18 2.345 2.537-.815-.82 2.527Z" clip-rule="evenodd"/>
</svg>
