<svg xmlns="http://www.w3.org/2000/svg" width="16" height="16" fill="currentColor" viewBox="0 0 16 16">
  <path fill-rule="evenodd" d="M8.77 2H4v13h4.77c.669 0 1.67-.164 2.541-.697.924-.566 1.689-1.554 1.689-3.053 0-1.385-.653-2.333-1.481-2.916.565-.605.942-1.459.942-2.584 0-1.417-.599-2.404-1.417-3.006A3.962 3.962 0 0 0 8.77 2Zm0 7.5H6V13h2.77c.407 0 1.02-.111 1.496-.403.422-.259.734-.646.734-1.347s-.312-1.088-.734-1.347C9.79 9.61 9.176 9.5 8.769 9.5Zm1.09-2.356a1.97 1.97 0 0 1-1.09.356H6V4h2.77c.284 0 .736.096 1.09.356.303.223.601.611.601 1.394 0 .783-.298 1.17-.602 1.394Z" clip-rule="evenodd"/>
</svg>
