<svg xmlns="http://www.w3.org/2000/svg" width="16" height="16" fill="currentColor" viewBox="0 0 16 16">
  <path d="m12.76 5.236-2.17.393a2.65 2.65 0 0 0-.432-.811 2.147 2.147 0 0 0-.785-.63c-.33-.165-.744-.247-1.24-.247-.679 0-1.245.156-1.698.467-.454.306-.68.702-.68 1.188 0 .42.151.76.456 1.016.17.144.4.273.688.388H3.582a3.504 3.504 0 0 1-.222-1.273c0-.743.203-1.392.609-1.95.405-.556.966-.99 1.681-1.302C6.365 2.158 7.185 2 8.108 2c1.33 0 2.375.295 3.139.885.763.584 1.267 1.368 1.513 2.35ZM15 8v1.5h-2.399c.266.457.399.993.399 1.609a3.35 3.35 0 0 1-.64 2.015c-.422.585-1.012 1.043-1.77 1.376-.753.333-1.625.5-2.618.5-1.377 0-2.5-.3-3.37-.901-.87-.606-1.405-1.466-1.602-2.58l2.314-.36c.144.616.44 1.083.889 1.4.448.311 1.032.467 1.753.467.785 0 1.412-.167 1.881-.5.47-.338.705-.75.705-1.237a1.3 1.3 0 0 0-.432-.991c-.283-.268-.718-.47-1.305-.606L7.949 9.5H1V8h14Z"/>
</svg>
