<svg xmlns="http://www.w3.org/2000/svg" width="16" height="16" fill="currentColor" viewBox="0 0 16 16">
  <path d="m12.325 4.929-1.301.376a3.535 3.535 0 0 0-.543-1.022 2.473 2.473 0 0 0-.917-.729c-.373-.18-.835-.27-1.388-.27-.83 0-1.511.202-2.043.606-.532.403-.798.924-.798 1.562 0 .54.181.98.543 1.318.089.08.19.157.302.23H4.24a3.22 3.22 0 0 1-.333-1.482c0-.693.183-1.3.55-1.824.367-.53.873-.944 1.516-1.244.644-.3 1.378-.45 2.203-.45 1.122 0 2.018.262 2.688.785.676.519 1.163 1.233 1.46 2.144ZM15 8v1.5h-3.065c.377.51.565 1.125.565 1.843a3.23 3.23 0 0 1-.575 1.89c-.382.55-.917.984-1.603 1.3-.681.312-1.47.467-2.37.467-1.197 0-2.183-.275-2.96-.826-.777-.557-1.274-1.358-1.492-2.406l1.364-.343c.176.747.519 1.311 1.03 1.693.516.382 1.194.573 2.034.573.942 0 1.694-.215 2.258-.646.564-.437.846-.982.846-1.637 0-.507-.165-.932-.495-1.276-.249-.263-.595-.474-1.038-.632H1V8h14Z"/>
</svg>
