<svg xmlns="http://www.w3.org/2000/svg" width="16" height="16" fill="currentColor" viewBox="0 0 16 16">
  <path d="M10.623 8.859A5.983 5.983 0 0 0 12.5 4.5 5.98 5.98 0 0 0 10.623.141a4.502 4.502 0 0 1 0 8.718Z"/>
  <path fill-rule="evenodd" d="M14 16h1.5v-3.5a2 2 0 0 0-2-2h-.177c.415.367.677.903.677 1.5v4ZM3.737 14.5H2v-2a.5.5 0 0 1 .5-.5h.889l1.167-1.5H2.5a2 2 0 0 0-2 2V16h3.79l-.553-1.5Zm5.526 0L8.711 16H12.5v-3.5a2 2 0 0 0-2-2H8.444L9.611 12h.889a.5.5 0 0 1 .5.5v2H9.263Zm-2.763-4-2 2.5 1.2 3h1.6l1.2-3-2-2.5Zm0-3a3 3 0 1 0 0-6 3 3 0 0 0 0 6Zm0 1.5a4.5 4.5 0 1 0 0-9 4.5 4.5 0 0 0 0 9Z" clip-rule="evenodd"/>
</svg>
