<svg xmlns="http://www.w3.org/2000/svg" width="16" height="16" fill="currentColor" viewBox="0 0 16 16">
  <path d="M10.623 8.859A5.983 5.983 0 0 0 12.5 4.5 5.98 5.98 0 0 0 10.623.141a4.502 4.502 0 0 1 0 8.718Z"/>
  <path d="M11 4.5a4.5 4.5 0 1 1-9 0 4.5 4.5 0 0 1 9 0Z"/>
  <path fill-rule="evenodd" d="M4.556 10.5 3 12.5 4.29 16H.5v-3.5a2 2 0 0 1 2-2h2.056Zm3.888 0 1.556 2L8.71 16h3.79v-3.5a2 2 0 0 0-2-2H8.444ZM14 16h1.5v-3.5a2 2 0 0 0-2-2h-.177c.415.367.677.903.677 1.5v4Zm-7.5-5.5-2 2.5 1.2 3h1.6l1.2-3-2-2.5Z" clip-rule="evenodd"/>
</svg>
