<svg xmlns="http://www.w3.org/2000/svg" width="16" height="16" fill="currentColor" viewBox="0 0 16 16">
  <path fill-rule="evenodd" d="M6.5 9a4.5 4.5 0 1 0 0-9 4.5 4.5 0 0 0 0 9Zm0-1.5a3 3 0 1 0 0-6 3 3 0 0 0 0 6Zm-2 3a4 4 0 0 0-4 4V16h12v-1.5a4 4 0 0 0-4-4h-4Zm0 1.5A2.5 2.5 0 0 0 2 14.5h9A2.5 2.5 0 0 0 8.5 12h-4Z" clip-rule="evenodd"/>
  <path d="M12.5 4.5a5.98 5.98 0 0 1-1.877 4.359 4.502 4.502 0 0 0 0-8.717A5.983 5.983 0 0 1 12.5 4.5Zm3 11.5H14v-1.267c0-1.739-.74-3.305-1.922-4.401a4.001 4.001 0 0 1 3.422 3.959V16Z"/>
</svg>
