<svg xmlns="http://www.w3.org/2000/svg" width="16" height="16" fill="currentColor" viewBox="0 0 16 16">
  <path d="M6.5 6.32v-2.7L3.621 6.5H1.5v3h1.82L1.82 11H0V5h3l5-5v4.82l-1.5 1.5Z"/>
  <path fill-rule="evenodd" d="M4.528 12.528 8 16V9.057l2.216-2.216c.181.346.284.74.284 1.159 0 .563-.186 1.082-.5 1.5v1.965a3.998 3.998 0 0 0 1.307-5.716l1.787-1.787A6.503 6.503 0 0 1 10 14.186v1.562a8.003 8.003 0 0 0 4.16-12.852L16 1.056 14.943 0 0 14.943 1.057 16l3.471-3.472Zm1.061-1.06.911.91v-1.821l-.911.91Z" clip-rule="evenodd"/>
  <path d="M10.723 2.096 11.84.98A7.947 7.947 0 0 0 10 .252v1.561c.248.08.49.175.723.283Z"/>
</svg>
