<svg xmlns="http://www.w3.org/2000/svg" width="16" height="16" fill="currentColor" viewBox="0 0 16 16">
  <path d="M7.5 11h1l1-10h-3l1 10ZM4.935 3.479A10.02 10.02 0 0 0 0 6.999l1.432 1.433a8.024 8.024 0 0 1 3.757-2.924l-.254-2.03Zm5.877 2.029.253-2.03A10.02 10.02 0 0 1 16 7l-1.432 1.432a8.024 8.024 0 0 0-3.756-2.924Zm-7.936 4.618a6.026 6.026 0 0 1 2.6-2.32l.267 2.14a4.016 4.016 0 0 0-1.39 1.658l-1.477-1.478Zm7.381-.179.267-2.142a6.025 6.025 0 0 1 2.6 2.321l-1.478 1.478a4.016 4.016 0 0 0-1.39-1.657ZM9.5 13.5a1.5 1.5 0 1 1-3 0 1.5 1.5 0 0 1 3 0Z"/>
</svg>
