<svg xmlns="http://www.w3.org/2000/svg" width="16" height="16" fill="currentColor" viewBox="0 0 16 16">
  <path d="M7.5 11h1l1-10h-3l1 10ZM4.935 3.479A10.02 10.02 0 0 0 0 6.999l1.073 1.074a8.523 8.523 0 0 1 4.052-3.074l-.19-1.52Zm5.94 1.52.19-1.52A10.02 10.02 0 0 1 16 6.999l-1.073 1.074a8.523 8.523 0 0 0-4.052-3.074Zm-7.999 5.377a6.025 6.025 0 0 1 2.63-2.334l.198 1.587a4.52 4.52 0 0 0-1.726 1.85l-1.102-1.103Zm7.42-.746.199-1.588a6.025 6.025 0 0 1 2.628 2.334l-1.102 1.103a4.521 4.521 0 0 0-1.725-1.85ZM9.5 13.5a1.5 1.5 0 1 1-3 0 1.5 1.5 0 0 1 3 0Z"/>
</svg>
